<?xml version="1.0" encoding="UTF-8" standalone="no"?>
<!-- Created with Inkscape (http://www.inkscape.org/) -->

<svg
   width="6.4945374mm"
   height="6.5025034mm"
   viewBox="0 0 6.4945374 6.5025034"
   version="1.1"
   id="svg1"
   inkscape:version="1.4.2 (ebf0e94, 2025-05-08)"
   sodipodi:docname="settings.svg"
   xmlns:inkscape="http://www.inkscape.org/namespaces/inkscape"
   xmlns:sodipodi="http://sodipodi.sourceforge.net/DTD/sodipodi-0.dtd"
   xmlns="http://www.w3.org/2000/svg"
   xmlns:svg="http://www.w3.org/2000/svg">
  <sodipodi:namedview
     id="namedview1"
     pagecolor="#000000"
     bordercolor="#000000"
     borderopacity="0.25"
     inkscape:showpageshadow="2"
     inkscape:pageopacity="0.0"
     inkscape:pagecheckerboard="0"
     inkscape:deskcolor="#d1d1d1"
     inkscape:document-units="mm"
     inkscape:zoom="8.1380722"
     inkscape:cx="6.1439612"
     inkscape:cy="14.376869"
     inkscape:window-width="1492"
     inkscape:window-height="696"
     inkscape:window-x="0"
     inkscape:window-y="0"
     inkscape:window-maximized="1"
     inkscape:current-layer="layer1" />
  <defs
     id="defs1" />
  <g
     inkscape:label="Layer 1"
     inkscape:groupmode="layer"
     id="layer1"
     transform="translate(-444.23542,-355.59998)">
    <path
       id="path298"
       style="fill:#ffffff;stroke-width:0.550974;stroke-linejoin:bevel"
       d="m 446.94852,355.84212 -0.0821,0.72293 a 2.4199743,2.4199743 0 0 0 -0.51115,0.20667 2.4199743,2.4199743 0 0 0 -4.3e-4,0 l -0.5677,-0.48181 -0.91429,0.91428 0.49584,0.56814 a 2.4199743,2.4199743 0 0 1 0,4.2e-4 2.4199743,2.4199743 0 0 0 -0.17137,0.41632 l -0.73739,0.0608 v 1.29276 l 0.73356,0.0502 a 2.4199743,2.4199743 0 0 0 0.17776,0.43461 l -0.46353,0.54687 0.91429,0.91386 0.53283,-0.4648 a 2.4199743,2.4199743 0 0 0 0.45673,0.19094 l 0.0566,0.68678 h 1.29233 l 0.0468,-0.68593 a 2.4199743,2.4199743 0 0 0 0.50349,-0.2156 l 0.51413,0.421 0.78927,-0.78927 -0.41122,-0.51668 a 2.4199743,2.4199743 0 0 0 0.24877,-0.6013 l 0.66722,-0.0663 v -1.11628 l -0.67487,-0.077 a 2.4199743,2.4199743 0 0 0 -0.24537,-0.58047 l 0.44013,-0.53666 -0.78969,-0.78969 -0.55325,0.44056 a 2.4199743,2.4199743 0 0 1 -4.2e-4,0 2.4199743,2.4199743 0 0 0 -0.55921,-0.22793 l -0.071,-0.7174 z m 0.5422,1.0308 a 2.0068082,2.0068082 0 0 1 0.6889,0.12205 2.0068082,2.0068082 0 0 1 0.16755,0.0697 2.0068082,2.0068082 0 0 1 0.96064,0.96362 2.0068082,2.0068082 0 0 1 0.0714,0.17265 2.0068082,2.0068082 0 0 1 0.11822,0.6787 2.0068082,2.0068082 0 0 1 -0.11907,0.6804 2.0068082,2.0068082 0 0 1 -0.074,0.17903 2.0068082,2.0068082 0 0 1 -0.96234,0.95809 2.0068082,2.0068082 0 0 1 -4.3e-4,0 2.0068082,2.0068082 0 0 1 -0.10206,0.0442 2.0068082,2.0068082 0 0 1 -0.74886,0.14501 2.0068082,2.0068082 0 0 1 -0.71697,-0.13226 2.0068082,2.0068082 0 0 1 -0.0748,-0.0306 2.0068082,2.0068082 0 0 1 -1.04315,-1.03123 2.0068082,2.0068082 0 0 1 -0.0293,-0.0702 2.0068082,2.0068082 0 0 1 -0.14246,-0.74249 2.0068082,2.0068082 0 0 1 0.13566,-0.72505 2.0068082,2.0068082 0 0 1 0.0259,-0.0647 2.0068082,2.0068082 0 0 1 1.03208,-1.04483 2.0068082,2.0068082 0 0 1 0.14033,-0.0562 2.0068082,2.0068082 0 0 1 0.67275,-0.1161 z m -1.60022,0.22751 a 2.4199743,2.4199743 0 0 1 4.3e-4,0 2.4199743,2.4199743 0 0 0 -0.2003,0.20285 2.4199743,2.4199743 0 0 1 0.19987,-0.20285 z m 1.58108,0.8977 a 0.96950843,0.96950843 0 0 0 -0.96957,0.96958 0.96950843,0.96950843 0 0 0 0.96957,0.96957 0.96950843,0.96950843 0 0 0 0.96957,-0.96957 0.96950843,0.96950843 0 0 0 -0.96957,-0.96958 z" />
  </g>
</svg>
