<?xml version="1.0" encoding="UTF-8" standalone="no"?>
<!-- Created with Inkscape (http://www.inkscape.org/) -->

<svg
   width="14.515272mm"
   height="23.669201mm"
   viewBox="0 0 14.515272 23.669201"
   version="1.1"
   id="svg1"
   inkscape:version="1.4.2 (ebf0e94, 2025-05-08)"
   sodipodi:docname="carrot-0.1.svg"
   xmlns:inkscape="http://www.inkscape.org/namespaces/inkscape"
   xmlns:sodipodi="http://sodipodi.sourceforge.net/DTD/sodipodi-0.dtd"
   xmlns="http://www.w3.org/2000/svg"
   xmlns:svg="http://www.w3.org/2000/svg">
  <sodipodi:namedview
     id="namedview1"
     pagecolor="#ffffff"
     bordercolor="#000000"
     borderopacity="0.25"
     inkscape:showpageshadow="2"
     inkscape:pageopacity="0.0"
     inkscape:pagecheckerboard="0"
     inkscape:deskcolor="#d1d1d1"
     inkscape:document-units="mm"
     inkscape:zoom="2.5062482"
     inkscape:cx="-72.618506"
     inkscape:cy="40.498782"
     inkscape:window-width="1492"
     inkscape:window-height="762"
     inkscape:window-x="0"
     inkscape:window-y="0"
     inkscape:window-maximized="1"
     inkscape:current-layer="layer1"
     showgrid="false" />
  <defs
     id="defs1" />
  <g
     inkscape:label="Layer 1"
     inkscape:groupmode="layer"
     id="layer1"
     transform="translate(-67.860719,-71.054824)">
    <g
       id="g617"
       transform="matrix(0.4233218,-0.18827738,0.18736906,0.42537401,-70.232907,130.7158)">
      <path
         style="opacity:1;fill:#ba671e;fill-opacity:1;stroke:#003313;stroke-width:1.065;stroke-linejoin:bevel;stroke-dasharray:none;stroke-opacity:1"
         d="m 332.61116,21.800272 c 2.32409,-0.03819 5.08955,-0.374001 7.15189,0.698198 0.88632,0.460788 1.5073,1.472444 1.7317,2.445861 0.58619,2.542744 -0.77453,5.162627 -1.26991,7.724604 -0.76136,3.937515 -1.66833,7.846594 -2.61457,11.743813 -1.13771,4.685772 -1.49753,9.690427 -3.68136,13.98947 -0.40614,0.799521 -0.97948,1.549788 -1.69729,2.08731 -0.43368,0.324676 -0.96198,0.703347 -1.49859,0.629055 -0.64842,-0.08982 -1.14483,-0.698781 -1.53597,-1.223673 -0.88058,-1.181724 -1.24851,-2.683666 -1.65105,-4.10135 -1.97432,-6.95304 -2.44909,-14.246833 -3.68176,-21.368849 -0.54598,-3.154498 -2.29208,-6.326889 -1.64512,-9.462225 0.17334,-0.840069 0.78574,-2.02573 1.53253,-2.447728 2.6608,-1.503569 5.80367,-0.664284 8.85949,-0.714483 z"
         id="path612"
         sodipodi:nodetypes="ssssssssssssss" />
      <path
         style="opacity:1;fill:#00a13d;fill-opacity:1;stroke:#003313;stroke-width:1.065;stroke-linejoin:bevel;stroke-dasharray:none;stroke-opacity:1"
         d="m 327.75964,21.653561 c 0,0 -1.52553,-1.530396 -2.25209,-2.329533 -0.99961,-1.099456 -2.15869,-2.098781 -2.89641,-3.388659 -0.63672,-1.113278 -1.65933,-2.421075 -1.25336,-3.637624 0.11308,-0.338863 0.53283,-0.558996 0.88764,-0.600526 1.87067,-0.21896 5.28459,1.999828 5.28459,1.999828 0,0 0.67647,-1.958555 0.98467,-2.976373 0.28079,-0.9272922 0.45397,-1.9683285 0.99749,-2.7639795 0.24217,-0.3545165 0.61498,-0.9066217 1.02515,-0.7797686 0.75631,0.2339047 0.89306,2.2777781 1.10488,3.0405701 0.34907,1.257075 0.50192,3.032014 0.50192,3.032014 0,0 2.47982,-1.630352 3.73056,-2.428722 0.56244,-0.359015 1.04758,-1.215406 1.69693,-1.061844 0.48725,0.115228 0.64012,0.802427 0.78155,1.282726 0.19967,0.678101 0.0605,1.413114 0.0541,2.119973 -0.008,0.919247 -1.07191,3.899334 -1.32718,4.782466 -0.5738,1.985148 -1.64484,3.770706 -1.64484,3.770706 0,0 -2.44594,0.137065 -3.77225,0.202185 -1.15794,0.05685 -3.90335,-0.263441 -3.90335,-0.263441 z"
         id="path613"
         sodipodi:nodetypes="csssscsssscssssscscc" />
      <path
         style="opacity:1;fill:none;fill-opacity:1;stroke:#003313;stroke-width:0.287213;stroke-linejoin:bevel;stroke-dasharray:none;stroke-opacity:1"
         d="m 335.80267,51.529474 c 0,0 -1.23172,0.534671 -1.87799,0.594913 -0.9171,0.08549 -3.97692,-0.509089 -3.97692,-0.509089"
         id="path614"
         sodipodi:nodetypes="csc" />
      <path
         style="opacity:1;fill:none;fill-opacity:1;stroke:#003313;stroke-width:0.287212;stroke-linejoin:bevel;stroke-dasharray:none;stroke-opacity:1"
         d="m 325.17639,41.703871 c 0,0 1.63855,0.893623 2.50441,1.178679 1.08668,0.357756 2.21462,0.545311 3.33919,0.65482 0.51766,0.05041 1.55828,0 1.55828,0"
         id="path615"
         sodipodi:nodetypes="cssc" />
      <path
         style="opacity:1;fill:none;fill-opacity:1;stroke:#003313;stroke-width:0.347218;stroke-linejoin:bevel;stroke-dasharray:none;stroke-opacity:1"
         d="m 338.98298,37.201801 c 0,0 -1.87928,0.512163 -2.86531,0.569869 -1.39925,0.0819 -6.06773,-0.487658 -6.06773,-0.487658"
         id="path616"
         sodipodi:nodetypes="csc" />
      <path
         style="opacity:1;fill:none;fill-opacity:1;stroke:#003313;stroke-width:0.287212;stroke-linejoin:bevel;stroke-dasharray:none;stroke-opacity:1"
         d="m 323.03202,29.809314 c 0,0 1.63855,0.893623 2.50441,1.178679 1.08668,0.357756 2.21462,0.545311 3.33919,0.65482 0.51766,0.05041 1.55828,0 1.55828,0"
         id="path617"
         sodipodi:nodetypes="cssc" />
    </g>
    <path
       d="m 74.627873,71.055032 c -0.07772,-0.0021 -0.157206,0.01188 -0.230477,0.03359 -0.0928,0.0275 -0.180559,0.08203 -0.248047,0.151412 -0.08083,0.0831 -0.131957,0.193221 -0.172599,0.30179 -0.0257,0.06866 -0.01469,0.148035 -0.04341,0.215491 -0.03946,0.09267 -0.116771,0.164219 -0.172599,0.248047 -0.292964,0.439896 -0.851628,1.337386 -0.851628,1.337386 0,0 -0.467873,-0.668534 -0.701249,-1.00304 -0.140362,-0.201187 -0.257898,-0.420546 -0.420646,-0.604097 -0.118236,-0.133349 -0.25145,-0.255494 -0.398942,-0.355534 -0.05322,-0.0361 -0.110014,-0.07153 -0.1726,-0.0863 -0.05948,-0.01404 -0.122613,-0.0098 -0.182934,0 -0.04488,0.0073 -0.08919,0.02226 -0.129708,0.04289 -0.05511,0.02806 -0.106973,0.06446 -0.150895,0.108003 -0.03473,0.03443 -0.06134,0.07681 -0.0863,0.118856 -0.03858,0.06499 -0.07478,0.132446 -0.09715,0.204639 -0.02694,0.08693 -0.03245,0.179342 -0.04289,0.269751 -0.01158,0.100243 -0.02304,0.20089 -0.0217,0.30179 0.0029,0.220317 0.04205,0.43866 0.0646,0.657841 0.05512,0.535865 0.172599,1.607137 0.172599,1.607137 0,0 -0.811585,-0.06844 -1.345137,-0.06046 v 1.104842 l 0.261482,-0.0026 0.532268,0.02584 0.430981,0.02946 0.160714,0.0021 0.129191,-0.01137 0.146244,-0.02946 0.188619,-0.07958 0.123506,-0.07545 0.126091,-0.100252 0.109037,-0.117822 0.09405,-0.136943 0.05168,-0.10542 0.04651,-0.125573 0.03307,-0.153479 0.01085,-0.207223 -0.01447,-0.180868 -0.02584,-0.216524 -0.06098,-0.574642 0.439767,0.610299 0.334863,0.193787 0.461987,0.04702 0.220659,-0.02015 0.334863,-0.160713 0.234094,-0.213941 0.268201,-0.428397 0.615466,-0.984436 0.134359,0.435115 0.227376,1.915129 0.03359,0.77618 v 0.776697 l 0.08682,0.388089 0.375171,0.395325 0.200505,0.120406 0.201021,0.06666 0.240812,0.02687 0.375171,-0.06666 0.756543,-0.28112 0.254248,-0.06046 0.234094,0.0067 0.194304,0.03359 0.14056,0.120407 0.301273,0.301273 0.282671,0.592729 0.238745,1.656229 1.207161,5.978964 1.094507,5.137154 0.04186,0.855762 -0.02791,0.982885 -0.126091,0.589112 -0.154512,0.224792 -0.589629,-0.435116 -1.222147,-1.29036 -2.709909,-4.114481 -1.347205,-2.270145 -0.657324,-1.088306 -0.320911,-0.485758 -0.110071,-0.152446 -1.016992,-1.224215 -0.592728,-0.722436 -0.200505,-0.278536 -0.204122,-0.330212 -0.07803,-0.135909 -0.11989,-0.33383 -0.06459,-0.24598 -0.02894,-0.10697 0.0031,-0.148828 V 80.14026 l 0.02274,-0.161748 0.02274,-0.103353 0.05478,-0.06821 0.0615,-0.08113 0.07441,-0.08061 0.129707,-0.116789 0.638204,-0.45682 0.116272,-0.119889 0.07493,-0.106454 0.103352,-0.201021 0.0646,-0.210323 0.01654,-0.204122 -0.02945,-0.22686 -0.03876,-0.148828 -0.04289,-0.09198 -0.05994,-0.106453 -0.05788,-0.08578 -0.05271,-0.06408 -0.04237,-0.04444 -0.05374,-0.04961 -0.04651,-0.04031 -0.05478,-0.03824 -0.06718,-0.04134 -0.06408,-0.03721 -0.115756,-0.04754 -0.412377,-0.16123 -0.282154,-0.114722 -0.1788,-0.07441 -0.209806,-0.08475 -0.45682,-0.199471 -0.118856,-0.05064 -0.268717,-0.127124 -0.164331,-0.07648 -0.248047,-0.128158 -0.129191,-0.07751 -0.179834,-0.129192 -0.310059,-0.240812 v 1.360124 c 0.02047,0.01227 0.04118,0.0245 0.06201,0.03617 0.799701,0.448183 2.519743,1.101741 2.519743,1.101741 0,0 -0.140214,0.09874 -0.209806,0.148829 -0.109152,0.07857 -0.220768,0.154068 -0.326079,0.237711 -0.09483,0.07532 -0.189466,0.151903 -0.274918,0.237712 -0.09092,0.0913 -0.172844,0.191198 -0.251148,0.293522 -0.05366,0.07012 -0.110344,0.139378 -0.149345,0.218591 -0.04837,0.09824 -0.07579,0.205884 -0.102319,0.312126 -0.02635,0.105513 -0.0454,0.213173 -0.05581,0.321427 -0.0082,0.08503 -0.0044,0.170897 -0.0052,0.256315 -5.15e-4,0.05279 -0.0038,0.105987 0,0.158647 0.007,0.09703 0.02306,0.193422 0.04186,0.288871 0.0198,0.100508 0.04437,0.199722 0.07441,0.297657 0.05041,0.164379 0.104713,0.328839 0.17725,0.484725 0.10271,0.220728 0.226799,0.431955 0.363285,0.633553 0.337063,0.497861 0.742966,0.94551 1.119312,1.414384 0.291194,0.362786 0.613251,0.701743 0.881083,1.082103 0.485482,0.689453 0.869681,1.444957 1.308964,2.164726 0.641724,1.05147 1.264092,2.115689 1.938383,3.146578 0.34654,0.529807 0.705505,1.051749 1.082105,1.560628 0.451344,0.609877 0.909574,1.216442 1.409732,1.786971 0.285534,0.325708 0.567019,0.661944 0.905888,0.931727 0.215023,0.171186 0.446792,0.333346 0.704867,0.42788 0.151544,0.05551 0.31724,0.06952 0.478523,0.07545 0.100967,0.0037 0.207571,0.01116 0.301791,-0.02532 0.128332,-0.04969 0.231544,-0.152648 0.327112,-0.251665 0.100248,-0.103867 0.181387,-0.22663 0.252181,-0.352433 0.06268,-0.111376 0.105477,-0.232975 0.150895,-0.352433 0.04715,-0.124005 0.08749,-0.250157 0.125573,-0.377238 0.03739,-0.124772 0.08169,-0.248905 0.100769,-0.377755 0.03688,-0.249138 0.0291,-0.503168 0.02532,-0.754993 -0.008,-0.529604 -0.0306,-1.060954 -0.100769,-1.585949 -0.0885,-0.662195 -0.262451,-1.309962 -0.40256,-1.963188 -0.12081,-0.56327 -0.262859,-1.122217 -0.37775,-1.686722 -0.102075,-0.501535 -0.181306,-1.007708 -0.276986,-1.510502 -0.235016,-1.235007 -0.473669,-2.469203 -0.729671,-3.700032 -0.111935,-0.53817 -0.247991,-1.071081 -0.352433,-1.610755 -0.143885,-0.743488 -0.162704,-1.514067 -0.377755,-2.240173 -0.0779,-0.263037 -0.176114,-0.526474 -0.327112,-0.755509 -0.228686,-0.346873 -0.505495,-0.682434 -0.855762,-0.905888 -0.20132,-0.128432 -0.442654,-0.196746 -0.679545,-0.22686 -0.241954,-0.03076 -0.490605,0.005 -0.730188,0.05064 -0.190279,0.03629 -0.369977,0.115642 -0.553971,0.176217 -0.153877,0.05066 -0.45992,0.156579 -0.45992,0.156579 0,0 0.01844,-0.784039 -0.0041,-1.175122 -0.01856,-0.321409 -0.06762,-0.640682 -0.107491,-0.960148 -0.06874,-0.550877 -0.08428,-1.1135 -0.22686,-1.650029 -0.06669,-0.250957 -0.17566,-0.48976 -0.290938,-0.722436 -0.078,-0.157438 -0.154361,-0.320186 -0.269751,-0.452686 -0.136049,-0.156221 -0.288774,-0.322921 -0.485242,-0.388606 -0.04349,-0.01454 -0.08928,-0.0215 -0.135909,-0.02274 z"
       style="fill:#2d2d2d;stroke-width:2.202;stroke-linejoin:round;stroke-miterlimit:1.5"
       id="path22" />
    <path
       d="m 69.396151,75.649067 v 0.09353 l 0.310059,0.240812 0.179834,0.129191 0.129191,0.07751 0.248047,0.128158 0.164331,0.07648 0.268717,0.127124 0.118856,0.05064 0.45682,0.199471 0.209806,0.08475 0.1788,0.07441 0.282154,0.114722 0.412377,0.16123 0.115756,0.04754 0.06408,0.03721 0.06718,0.04134 0.05478,0.03824 0.04651,0.04031 0.05374,0.04961 0.04237,0.04444 0.05271,0.06408 0.05788,0.08578 0.05994,0.106453 0.04289,0.09198 0.03876,0.148829 0.02946,0.226859 -0.01654,0.204122 -0.0646,0.210323 -0.103353,0.201021 -0.07493,0.106454 -0.116272,0.119889 -0.638204,0.45682 -0.129708,0.116789 -0.07441,0.08061 -0.0615,0.08113 -0.05478,0.06821 -0.02274,0.103352 -0.02274,0.161748 v 0.100769 l -0.0031,0.148828 0.02894,0.10697 0.0646,0.24598 0.119889,0.33383 0.07803,0.135909 0.204122,0.330212 0.200505,0.278536 0.592728,0.722436 1.016993,1.224215 0.11007,0.152446 0.320911,0.485758 0.657324,1.088306 1.347205,2.270145 2.709912,4.114478 1.222147,1.29036 0.589629,0.435116 0.154512,-0.224792 0.126091,-0.589112 0.02791,-0.982885 -0.04186,-0.855762 -1.09451,-5.137154 -1.207161,-5.978964 -0.238745,-1.656229 -0.282671,-0.592729 -0.301273,-0.301273 -0.14056,-0.120407 -0.194303,-0.03359 -0.234095,-0.0067 -0.254248,0.06046 -0.756543,0.28112 -0.375171,0.06666 -0.240812,-0.02687 -0.201021,-0.06666 -0.200505,-0.120406 -0.37517,-0.395325 -0.08682,-0.388089 v -0.776697 l -0.03359,-0.77618 -0.227376,-1.915129 -0.134359,-0.435115 -0.615466,0.984436 -0.268201,0.428397 -0.234094,0.213941 -0.334863,0.160713 -0.220659,0.02015 -0.461987,-0.04702 -0.334863,-0.193787 -0.439767,-0.610299 0.06098,0.574642 0.02584,0.216524 0.01447,0.180868 -0.01085,0.207223 -0.03307,0.153479 -0.04651,0.125573 -0.05168,0.10542 -0.09405,0.136943 -0.109037,0.117822 -0.126091,0.100252 -0.123507,0.07545 -0.188619,0.07958 -0.146244,0.02945 -0.129191,0.01137 -0.160714,-0.0021 -0.430981,-0.02946 -0.532267,-0.02584 z"
       style="fill:#464646;stroke-width:2.202;stroke-linejoin:round;stroke-miterlimit:1.5"
       id="path21" />
  </g>
</svg>
