<?xml version="1.0" encoding="UTF-8" standalone="no"?>
<!-- Created with Inkscape (http://www.inkscape.org/) -->

<svg
   width="14.51527mm"
   height="23.666571mm"
   viewBox="0 0 14.51527 23.66657"
   version="1.1"
   id="svg1"
   inkscape:version="1.4.2 (ebf0e94, 2025-05-08)"
   sodipodi:docname="carrot-0.6.svg"
   xmlns:inkscape="http://www.inkscape.org/namespaces/inkscape"
   xmlns:sodipodi="http://sodipodi.sourceforge.net/DTD/sodipodi-0.dtd"
   xmlns="http://www.w3.org/2000/svg"
   xmlns:svg="http://www.w3.org/2000/svg">
  <sodipodi:namedview
     id="namedview1"
     pagecolor="#ffffff"
     bordercolor="#000000"
     borderopacity="0.25"
     inkscape:showpageshadow="2"
     inkscape:pageopacity="0.0"
     inkscape:pagecheckerboard="0"
     inkscape:deskcolor="#d1d1d1"
     inkscape:document-units="mm"
     inkscape:zoom="1.6424631"
     inkscape:cx="88.282044"
     inkscape:cy="77.627315"
     inkscape:window-width="1492"
     inkscape:window-height="762"
     inkscape:window-x="0"
     inkscape:window-y="0"
     inkscape:window-maximized="1"
     inkscape:current-layer="layer1"
     showgrid="false" />
  <defs
     id="defs1" />
  <g
     inkscape:label="Layer 1"
     inkscape:groupmode="layer"
     id="layer1"
     transform="translate(-16.266966,-84.813118)">
    <g
       id="g617"
       transform="matrix(0.4233218,-0.18827738,0.18736906,0.42537401,-121.82666,144.4713)">
      <path
         style="opacity:1;fill:#ba671e;fill-opacity:1;stroke:#003313;stroke-width:1.065;stroke-linejoin:bevel;stroke-dasharray:none;stroke-opacity:1"
         d="m 332.61116,21.800272 c 2.32409,-0.03819 5.08955,-0.374001 7.15189,0.698198 0.88632,0.460788 1.5073,1.472444 1.7317,2.445861 0.58619,2.542744 -0.77453,5.162627 -1.26991,7.724604 -0.76136,3.937515 -1.66833,7.846594 -2.61457,11.743813 -1.13771,4.685772 -1.49753,9.690427 -3.68136,13.98947 -0.40614,0.799521 -0.97948,1.549788 -1.69729,2.08731 -0.43368,0.324676 -0.96198,0.703347 -1.49859,0.629055 -0.64842,-0.08982 -1.14483,-0.698781 -1.53597,-1.223673 -0.88058,-1.181724 -1.24851,-2.683666 -1.65105,-4.10135 -1.97432,-6.95304 -2.44909,-14.246833 -3.68176,-21.368849 -0.54598,-3.154498 -2.29208,-6.326889 -1.64512,-9.462225 0.17334,-0.840069 0.78574,-2.02573 1.53253,-2.447728 2.6608,-1.503569 5.80367,-0.664284 8.85949,-0.714483 z"
         id="path612"
         sodipodi:nodetypes="ssssssssssssss" />
      <path
         style="opacity:1;fill:#00a13d;fill-opacity:1;stroke:#003313;stroke-width:1.065;stroke-linejoin:bevel;stroke-dasharray:none;stroke-opacity:1"
         d="m 327.75964,21.653561 c 0,0 -1.52553,-1.530396 -2.25209,-2.329533 -0.99961,-1.099456 -2.15869,-2.098781 -2.89641,-3.388659 -0.63672,-1.113278 -1.65933,-2.421075 -1.25336,-3.637624 0.11308,-0.338863 0.53283,-0.558996 0.88764,-0.600526 1.87067,-0.21896 5.28459,1.999828 5.28459,1.999828 0,0 0.67647,-1.958555 0.98467,-2.976373 0.28079,-0.9272922 0.45397,-1.9683285 0.99749,-2.7639795 0.24217,-0.3545165 0.61498,-0.9066217 1.02515,-0.7797686 0.75631,0.2339047 0.89306,2.2777781 1.10488,3.0405701 0.34907,1.257075 0.50192,3.032014 0.50192,3.032014 0,0 2.47982,-1.630352 3.73056,-2.428722 0.56244,-0.359015 1.04758,-1.215406 1.69693,-1.061844 0.48725,0.115228 0.64012,0.802427 0.78155,1.282726 0.19967,0.678101 0.0605,1.413114 0.0541,2.119973 -0.008,0.919247 -1.07191,3.899334 -1.32718,4.782466 -0.5738,1.985148 -1.64484,3.770706 -1.64484,3.770706 0,0 -2.44594,0.137065 -3.77225,0.202185 -1.15794,0.05685 -3.90335,-0.263441 -3.90335,-0.263441 z"
         id="path613"
         sodipodi:nodetypes="csssscsssscssssscscc" />
      <path
         style="opacity:1;fill:none;fill-opacity:1;stroke:#003313;stroke-width:0.287213;stroke-linejoin:bevel;stroke-dasharray:none;stroke-opacity:1"
         d="m 335.80267,51.529474 c 0,0 -1.23172,0.534671 -1.87799,0.594913 -0.9171,0.08549 -3.97692,-0.509089 -3.97692,-0.509089"
         id="path614"
         sodipodi:nodetypes="csc" />
      <path
         style="opacity:1;fill:none;fill-opacity:1;stroke:#003313;stroke-width:0.287212;stroke-linejoin:bevel;stroke-dasharray:none;stroke-opacity:1"
         d="m 325.17639,41.703871 c 0,0 1.63855,0.893623 2.50441,1.178679 1.08668,0.357756 2.21462,0.545311 3.33919,0.65482 0.51766,0.05041 1.55828,0 1.55828,0"
         id="path615"
         sodipodi:nodetypes="cssc" />
      <path
         style="opacity:1;fill:none;fill-opacity:1;stroke:#003313;stroke-width:0.347218;stroke-linejoin:bevel;stroke-dasharray:none;stroke-opacity:1"
         d="m 338.98298,37.201801 c 0,0 -1.87928,0.512163 -2.86531,0.569869 -1.39925,0.0819 -6.06773,-0.487658 -6.06773,-0.487658"
         id="path616"
         sodipodi:nodetypes="csc" />
      <path
         style="opacity:1;fill:none;fill-opacity:1;stroke:#003313;stroke-width:0.287212;stroke-linejoin:bevel;stroke-dasharray:none;stroke-opacity:1"
         d="m 323.03202,29.809314 c 0,0 1.63855,0.893623 2.50441,1.178679 1.08668,0.357756 2.21462,0.545311 3.33919,0.65482 0.51766,0.05041 1.55828,0 1.55828,0"
         id="path617"
         sodipodi:nodetypes="cssc" />
    </g>
    <path
       d="m 25.006609,90.028302 v 1.165304 l 0.680062,-0.252698 0.254248,-0.06046 0.234095,0.0067 0.194303,0.03359 0.14056,0.120406 0.301273,0.301274 0.282671,0.592729 0.238745,1.656229 1.207161,5.978964 1.094507,5.13715 0.04186,0.85576 -0.02791,0.98289 -0.126091,0.58911 -0.154512,0.22479 -0.589629,-0.43511 -1.222147,-1.29036 -2.549199,-3.87057 v 2.07068 c 0.31785,0.48144 0.646452,0.95587 0.989604,1.41955 0.451345,0.60988 0.909575,1.21644 1.409733,1.78697 0.285534,0.32571 0.567019,0.66194 0.905888,0.93173 0.215023,0.17118 0.446792,0.33334 0.704867,0.42788 0.151544,0.0555 0.31724,0.0695 0.478523,0.0755 0.100967,0.004 0.207571,0.0112 0.301791,-0.0253 0.128332,-0.0497 0.231544,-0.15265 0.327112,-0.25167 0.100248,-0.10387 0.181387,-0.22663 0.252181,-0.35243 0.06268,-0.11138 0.105477,-0.23298 0.150895,-0.35243 0.04715,-0.12401 0.08749,-0.25016 0.125573,-0.37724 0.03739,-0.12477 0.08169,-0.24891 0.100769,-0.37776 0.03688,-0.24914 0.0291,-0.50317 0.02532,-0.75499 -0.008,-0.5296 -0.0306,-1.06095 -0.100769,-1.58595 -0.0885,-0.66219 -0.262451,-1.30996 -0.40256,-1.96319 -0.120809,-0.56327 -0.262858,-1.12222 -0.377749,-1.68672 -0.102075,-0.50154 -0.181306,-1.007709 -0.276986,-1.510503 -0.235016,-1.235007 -0.473669,-2.469203 -0.729671,-3.700032 -0.111935,-0.53817 -0.247991,-1.071081 -0.352433,-1.610755 -0.143885,-0.743488 -0.162704,-1.514067 -0.377755,-2.240173 -0.0779,-0.263037 -0.176114,-0.526475 -0.327112,-0.75551 -0.228686,-0.346873 -0.505495,-0.682433 -0.855762,-0.905887 -0.20132,-0.128432 -0.442654,-0.196746 -0.679545,-0.22686 -0.241954,-0.03076 -0.490605,0.005 -0.730188,0.05064 -0.190279,0.03629 -0.369977,0.115642 -0.553971,0.176217 -0.0027,8.72e-4 -0.005,0.0017 -0.0078,0.0026 z"
       style="fill:#2d2d2d;stroke-width:2.202;stroke-linejoin:round;stroke-miterlimit:1.5"
       id="path34" />
    <path
       d="m 25.006609,101.76402 2.549199,3.87057 1.222147,1.29035 0.589629,0.43512 0.154512,-0.22479 0.126091,-0.58911 0.02791,-0.98289 -0.04186,-0.85576 -1.09451,-5.137154 -1.207161,-5.978964 -0.238745,-1.656229 -0.282671,-0.592729 -0.301273,-0.301273 -0.14056,-0.120407 -0.194303,-0.03359 -0.234095,-0.0067 -0.254248,0.06046 -0.680062,0.252698 z"
       style="fill:#464646;stroke-width:2.202;stroke-linejoin:round;stroke-miterlimit:1.5"
       id="path33" />
  </g>
</svg>
