<?xml version="1.0" encoding="UTF-8" standalone="no"?>
<!-- Created with Inkscape (http://www.inkscape.org/) -->

<svg
   width="2664.9431"
   height="651.85956"
   viewBox="0 0 2664.9432 651.85952"
   version="1.1"
   id="svg5"
   inkscape:version="1.4.2 (ebf0e94, 2025-05-08)"
   sodipodi:docname="logo.svg"
   xmlns:inkscape="http://www.inkscape.org/namespaces/inkscape"
   xmlns:sodipodi="http://sodipodi.sourceforge.net/DTD/sodipodi-0.dtd"
   xmlns="http://www.w3.org/2000/svg"
   xmlns:svg="http://www.w3.org/2000/svg">
  <sodipodi:namedview
     id="namedview7"
     pagecolor="#1e0e1c"
     bordercolor="#0f191d"
     borderopacity="1"
     inkscape:showpageshadow="2"
     inkscape:pageopacity="0"
     inkscape:pagecheckerboard="0"
     inkscape:deskcolor="#000000"
     inkscape:document-units="mm"
     showgrid="false"
     inkscape:zoom="0.1204888"
     inkscape:cx="307.08249"
     inkscape:cy="971.04464"
     inkscape:window-width="1492"
     inkscape:window-height="768"
     inkscape:window-x="0"
     inkscape:window-y="0"
     inkscape:window-maximized="1"
     inkscape:current-layer="layer1" />
  <defs
     id="defs2" />
  <g
     inkscape:label="Layer 1"
     inkscape:groupmode="layer"
     id="layer1"
     transform="translate(0.04208012,-0.00142593)">
    <path
       style="fill:#e87c7c;fill-opacity:1;stroke-width:2.7183"
       d="M 81.098483,645.49569 C 63.487294,648.3174 45.160567,638.41576 30.388735,628.42036 17.515,619.70931 0.1403344,592.92987 0.1403344,592.92987 L 0.90080258,44.592575 C 0.93539696,20.024101 16.014858,9.5728832 34.506599,3.2804144 53.8572,-3.3043117 89.004423,0.70349939 107.54433,9.3102945 c 14.26666,6.6230305 27.22716,30.5418285 31.51593,35.1192955 1.18702,1.58485 245.92017,414.32446 237.74207,412.42013 8.74155,1.73351 -0.20907,-402.163161 -0.20907,-402.163161 0.3289,-14.337711 4.35636,-21.719346 24.3219,-38.909774 16.35489,-14.0816662 41.85953,-15.43201862 61.10359,-5.662697 18.5639,9.424016 37.54384,26.488776 37.52416,47.868964 l -0.49424,538.674168 c 0,0 -36.25575,42.29009 -59.18665,50.25989 -21.1637,7.35561 -46.51622,6.41859 -67.17867,-2.24532 -13.68553,-5.73844 -27.05591,-26.45577 -41.84384,-46.21013 0.0647,0.0588 -193.38931,-335.33086 -193.38931,-335.33086 l 1.61139,338.97956 c 0,0 -34.13217,39.56719 -57.961757,43.3853 z"
       id="path954"
       sodipodi:nodetypes="sscsssccsssscsscccss" />
    <path
       style="fill:#e87c7c;fill-opacity:1;stroke-width:2.93429"
       d="M 590.30001,566.94323 589.19966,88.503359 c 0,0 4.04546,-33.947361 14.7258,-45.990582 7.44766,-8.397808 30.61245,-14.027793 30.61245,-14.027793 l 266.11115,1.676621 c 0,0 26.5387,9.493467 35.74086,19.4599 7.52848,8.15377 10.68019,19.692563 13.54229,30.415068 2.25014,8.43009 3.21043,17.328109 2.68558,26.037537 -0.90177,14.9538 -1.75681,31.28423 -9.94618,43.82836 -3.62053,5.54554 -9.34725,11.85513 -15.96999,11.82014 L 739.73607,160.7312 c -7.29614,-0.0393 -20.39324,13.79371 -23.23163,18.71324 -6.15269,10.66397 -12.97464,21.72352 -14.59683,33.92766 -1.68829,12.69965 2.53005,21.16652 8.61042,32.44305 2.94491,5.46183 20.7571,17.18041 26.96238,17.18227 l 166.8955,0.0497 c 9.36989,0.003 18.89944,4.81041 25.8083,11.14008 8.94423,8.19443 15.03161,20.10542 17.28467,32.02494 1.94421,10.28572 -0.68789,21.17785 -3.7996,31.17269 -3.44885,11.07955 -8.10973,22.46921 -16.14391,30.84189 -5.00608,5.21692 -11.55579,10.87339 -18.78588,10.84321 l -157.02105,-0.65729 c -7.32655,-0.0288 -15.17054,2.21144 -20.91468,6.75946 -8.66346,6.8594 -13.74063,17.85668 -17.15745,28.36537 -3.29505,10.13451 -3.77778,21.25274 -2.70547,31.85539 1.56772,15.50188 4.52378,31.89899 13.20104,44.84012 5.07802,7.57345 12.22509,17.01477 21.34291,17.1108 62.01866,0.65324 168.44934,0.98863 168.44934,0.98863 14.23857,0.082 26.77652,12.82666 35.05279,24.41319 5.01632,7.02253 6.13622,16.32094 7.10717,24.89647 1.27755,11.27883 0.26382,22.84226 -1.78933,34.00536 -2.06445,11.21357 -3.14055,23.83937 -10.48697,32.55938 -6.00828,7.13157 -11.02498,7.81552 -24.78634,12.97202 0,0 -311.45143,-4.20548 -313.07489,-2.98125 -5.38825,4.06318 -11.5085,-8.21684 -14.24837,-14.38448 -2.98227,-6.71339 -0.99523,-14.66183 -1.22204,-22.0045 -0.31517,-10.28399 -0.18844,-30.86595 -0.18844,-30.86595 z"
       id="path2240"
       sodipodi:nodetypes="ccsccssssssssssssssssssssssssssssssscc" />
    <path
       style="fill:#e87c7c;fill-opacity:1;stroke-width:2.93429"
       d="m 2298.539,566.95609 -1.1018,-478.439894 c 0,0 4.0458,-33.947364 14.7259,-45.990585 7.4461,-8.397795 30.6123,-14.027793 30.6123,-14.027793 l 266.1109,1.676621 c 0,0 26.5388,9.493465 35.7409,19.459895 7.5278,8.153773 10.6805,19.692565 13.5425,30.415073 2.2493,8.430087 3.2111,17.328109 2.6862,26.037543 -0.9068,14.95379 -1.7573,31.28421 -9.9459,43.82835 -3.6218,5.54554 -9.3469,11.85513 -15.97,11.82014 l -186.9657,-0.99129 c -7.2957,-0.0393 -20.3934,13.79368 -23.2315,18.71324 -6.1516,10.6637 -12.9747,21.72352 -14.5967,33.92766 -1.6888,12.69966 2.5292,21.1665 8.611,32.44304 2.9455,5.46184 20.7569,17.18043 26.9622,17.18226 l 166.8955,0.0497 c 9.3704,0.003 18.8997,4.81041 25.8082,11.14008 8.9454,8.19443 15.032,20.10544 17.2848,32.02498 1.9439,10.2857 -0.686,21.17783 -3.7996,31.17267 -3.4481,11.07945 -8.1106,22.46916 -16.1439,30.84186 -5.0058,5.21695 -11.5552,10.87342 -18.7859,10.84324 l -157.0207,-0.65706 c -7.3269,-0.0288 -15.1705,2.21144 -20.9147,6.75954 -8.6642,6.85943 -13.7408,17.85665 -17.1575,28.36534 -3.2954,10.13449 -3.7774,21.25279 -2.7059,31.85539 1.5681,15.50193 4.524,31.89904 13.2011,44.84012 5.0785,7.57345 12.2239,17.01477 21.3429,17.11077 62.0188,0.65324 168.4493,0.98864 168.4493,0.98864 14.2387,0.082 26.7766,12.82653 35.0528,24.41313 5.0163,7.02271 6.1359,16.321 7.1064,24.89653 1.2831,11.27888 0.2714,22.84228 -1.7897,34.00538 -2.0641,11.21367 -3.141,23.83937 -10.4875,32.55933 -6.0076,7.13157 -17.984,6.59315 -24.786,12.97202 0,0 -311.452,-4.2055 -313.0752,-2.98123 -5.3882,4.06359 -11.5099,-8.2165 -14.2484,-14.38409 -2.983,-6.71355 -1.0106,-14.66186 -1.2179,-22.0045 -0.3211,-10.28405 -0.1953,-30.86598 -0.1953,-30.86598 z"
       id="path2240-3"
       sodipodi:nodetypes="ccsccssssssssssssssssssssssssssssssscc" />
    <path
       id="path2294"
       style="fill:#e87c7c;fill-opacity:1;stroke-width:3.29125"
       d="M 1282.2864,18.579287 A 270.78201,311.41678 0 0 0 1011.4988,329.99299 270.78201,311.41678 0 0 0 1282.2864,641.40671 270.78201,311.41678 0 0 0 1553.0652,329.99299 270.78201,311.41678 0 0 0 1282.2864,18.579287 Z m 1.678,145.656733 a 132.36251,160.87917 0 0 1 132.3578,160.87875 132.36251,160.87917 0 0 1 -132.3586,160.87879 132.36251,160.87917 0 0 1 -132.3672,-160.87879 132.36251,160.87917 0 0 1 132.3672,-160.87875 z" />
    <path
       style="fill:#e87c7c;fill-opacity:1;stroke-width:2.7183"
       d="m 1646.8981,591.74096 2.4337,-504.50301 c 0.081,-15.876949 15.6078,-29.04256 28.7152,-38.002501 8.8197,-6.028481 20.2343,-7.428205 30.8387,-8.718773 12.9237,-1.572841 26.2862,-1.332306 39.0364,1.300996 13.0823,2.701886 26.1024,7.364892 37.3048,14.641851 6.5817,4.275565 13.4251,8.138738 16.7698,16.528642 l 120.11,301.288925 119.8942,-298.57123 c 2.7445,-6.835803 7.7221,-12.792945 13.1824,-17.73689 8.0926,-7.326744 17.7998,-13.195881 28.0922,-16.834246 10.31,-3.644572 21.5596,-4.134798 32.4863,-4.568266 12.868,-0.510325 26.0943,-0.889506 38.5621,2.332264 13.1548,3.39927 27.3297,7.800854 36.7844,17.558206 4.7247,4.877047 7.0573,11.826864 8.1924,18.653308 0.2195,1.319768 1.7689,507.428084 1.7689,507.428084 0.035,9.79835 -3.0026,29.86613 -9.0376,37.58402 -7.8955,10.09454 -17.9984,13.26045 -30.0868,17.5162 -14.6498,5.15741 -43.9097,4.90694 -58.428,-0.60911 -13.7004,-5.20605 -23.6305,-13.77863 -23.467,-33.0246 l 1.922,-348.24774 -113.2925,354.11686 c -4.2685,13.34326 -13.6158,15.73992 -21.1372,19.65394 -6.2461,3.24982 -14.6903,5.22494 -21.7179,5.64737 -10.6456,0.63997 -21.5078,-3.88511 -30.5344,-9.56711 -5.3104,-3.34303 -9.4131,-3.95815 -13.759,-8.48475 -2.9349,-3.05696 -8.0189,-14.32443 -8.0189,-14.32443 l -117.514,-353.39915 3.6013,355.69461 c 0.081,7.96558 -7.0883,16.83701 -13.9796,22.23644 -6.421,5.03108 -15.1331,6.73567 -23.2353,7.68852 -11.2196,1.31931 -23.113,0.86819 -33.7648,-2.89148 -9.9337,-3.50732 -18.7288,-10.24628 -26.1999,-17.67275 -6.5041,-6.46499 -15.5657,-13.54436 -15.5215,-22.71466 z"
       id="path2299"
       sodipodi:nodetypes="ssssssscsssssssssssscsssssccssssss" />
    <path
       id="path404"
       style="fill:#e35656;fill-opacity:1;stroke-width:2.7183"
       d="M 74.382519,646.01718 72.960768,0.84191898 C 58.849418,-0.64540275 44.427239,-0.12068906 34.318193,3.3193284 15.826473,9.6117959 0.75017198,20.06669 0.71557633,44.635146 L -0.04208012,592.9698 c 0,0 17.37458312,26.7815 30.24831712,35.49265 12.953721,8.76527 28.634979,17.45047 44.176282,17.55473 z" />
    <path
       id="path954-3"
       style="fill:#e35656;fill-opacity:1;stroke-width:2.7183"
       d="m 138.11146,219.39636 1.00296,49.80017 -0.0242,-6.20629 c 0,0 193.45756,335.39419 193.39166,335.33653 14.78786,19.75432 28.15808,40.47264 41.84369,46.21102 16.87762,7.0769 36.87853,8.99088 55.17567,5.44863 L 159.21555,218.61798 c 0,0 -5.17672,-12.07674 -10.49212,-12.00922 -5.53868,0.0705 -10.79033,3.93529 -10.61197,12.7876 z"
       sodipodi:nodetypes="scccsccss" />
    <path
       id="path954-6"
       style="fill:#e35656;fill-opacity:1;stroke-width:2.7183"
       d="m 426.76721,11.422546 c -9.56902,1.357834 -18.68756,5.092481 -25.98307,11.373977 -19.96551,17.190409 -23.99325,24.568797 -24.32294,38.906493 0,0 7.94496,358.207464 1.56635,398.455294 l 32.13553,57.37463 c 0,0 9.16279,5.86586 13.51741,3.81982 4.64402,-2.18233 3.08642,-12.4472 3.08642,-12.4472 z"
       sodipodi:nodetypes="cscccscc" />
    <path
       id="path2240-7"
       style="fill:#e35656;fill-opacity:1;stroke-width:2.93429"
       d="m 634.21859,28.463403 c 0,0 -23.16688,5.623881 -30.61436,14.021664 -10.68032,12.04322 -14.72832,45.989696 -14.72832,45.989696 L 589.98257,566.914 c 0,0 -0.137,20.58581 0.17799,30.86974 0.22613,7.34255 -1.75681,15.29384 1.22614,22.00731 2.74005,6.16759 8.8632,18.44285 14.25145,14.37921 0.40977,-0.31184 20.58789,-0.26725 50.40822,-0.0415 V 28.59963 Z" />
    <path
       id="path2240-5"
       style="fill:#e35656;fill-opacity:1;stroke-width:2.93429"
       d="m 741.35739,121.55975 c -6.45549,3.28556 -6.0612,17.91195 -6.0612,17.91195 v 21.73059 c 1.03149,-0.36542 2.00556,-0.57666 2.8946,-0.57147 l 186.97252,0.99661 c 6.62279,0.0335 12.35066,-6.27966 15.97127,-11.82533 6.07528,-9.30591 8.10215,-20.69626 9.11785,-32.06166 l -194.51443,-3e-5 c 0,0 -8.50599,0.82879 -14.38061,3.81871 z"
       sodipodi:nodetypes="sccccsccs" />
    <path
       id="path2240-5-6"
       style="fill:#e35656;fill-opacity:1;stroke-width:2.93429"
       d="m 734.6525,339.03419 c -6.45546,3.28555 -6.06117,17.91191 -6.06117,17.91191 v 21.73063 c 1.03149,-0.36554 2.00556,-0.57654 2.89457,-0.57134 l 186.97253,0.9965 c 6.62284,0.0334 12.3507,-6.27968 15.97129,-11.82538 6.07553,-9.3059 8.10217,-20.69624 9.11784,-32.06163 l -194.5144,-5e-5 c 0,0 -8.50596,0.82798 -14.38068,3.81867 z"
       sodipodi:nodetypes="sccccsccs" />
    <path
       id="path2240-5-2"
       style="fill:#e35656;fill-opacity:1;stroke-width:2.93429"
       d="m 746.17585,596.27136 c -6.45562,3.2858 -6.06115,17.91201 -6.06115,17.91201 v 21.73056 c 1.03146,-0.36554 2.00553,-0.57656 2.89457,-0.57147 l 186.9725,0.9966 c 6.62281,0.0334 12.35068,-6.27966 15.97124,-11.82538 6.07553,-9.3059 8.10212,-20.69621 9.11797,-32.06163 h -194.5145 c 0,0 -8.50594,0.828 -14.38068,3.81855 z"
       sodipodi:nodetypes="sccccsccs" />
    <path
       id="path2294-2"
       style="fill:#e35656;fill-opacity:1;stroke-width:3.29125"
       d="m 1075.5891,138.52573 -6.1127,0.0855 a 270.78201,311.41678 0 0 0 -58.1298,192.69358 270.78201,311.41678 0 0 0 270.7874,311.41364 270.78201,311.41678 0 0 0 104.3665,-24.2633 c -41.7181,-5.00368 -156.2005,-21.20795 -209.7971,-53.62609 -43.8196,-26.50452 -80.9641,-68.32211 -101.7273,-115.13593 -25.2871,-57.01387 -22.5789,-123.60708 -20.7727,-185.95094 1.2256,-42.32618 21.3857,-125.21591 21.3857,-125.21591 z" />
    <path
       id="path2294-7"
       style="fill:#e35656;fill-opacity:1;stroke-width:3.29125"
       d="m 1318.29,164.18426 c -20.4141,-0.15765 -40.0388,2.11122 -40.0388,2.11122 l 0.1271,0.31484 a 132.36251,160.87917 0 0 1 4.3593,-0.26448 132.36251,160.87917 0 0 1 132.3587,160.87878 132.36251,160.87917 0 0 1 -23.744,91.74108 c 1.4811,-1.4937 31.9527,-32.32644 39.4597,-52.44294 9.6243,-25.78882 9.8653,-55.1828 5.6526,-82.38472 -4.3149,-27.89863 -13.548,-56.65542 -31.0696,-78.79156 -13.4998,-17.05492 -32.9092,-30.47927 -53.5839,-37.23787 -8.7431,-2.85816 -21.2774,-3.8298 -33.5258,-3.92466 z" />
    <path
       style="fill:#e87c7c;fill-opacity:1;stroke-width:2.93429"
       d="m 2297.9281,567.93462 -1.1065,-478.439889 c 0,0 4.0443,-33.94736 14.7256,-45.99058 7.4476,-8.397798 30.6124,-14.027794 30.6124,-14.027794 l 266.111,1.676622 c 0,0 26.5388,9.493467 35.7409,19.459894 7.5278,8.153771 10.6805,19.692566 13.5422,30.415074 2.2508,8.430089 3.2111,17.328108 2.6863,26.037543 -0.9066,14.95379 -1.7571,31.28421 -9.9457,43.82833 -3.6208,5.54554 -9.3472,11.85527 -15.97,11.82015 l -186.9652,-0.99129 c -7.2957,-0.0393 -20.3933,13.79368 -23.2316,18.7132 -6.1528,10.66384 -12.9744,21.72351 -14.5968,33.92765 -1.6897,12.69979 2.5294,21.16652 8.6111,32.44308 2.9456,5.46184 20.757,17.1804 26.9623,17.18226 l 166.8958,0.0497 c 9.3691,0.003 18.8994,4.81041 25.8082,11.14008 8.9441,8.19443 15.0316,20.10547 17.2845,32.02496 1.9439,10.2857 -0.686,21.17785 -3.7996,31.17267 -3.4494,11.07947 -8.1107,22.4692 -16.1439,30.84188 -5.0058,5.2169 -11.5553,10.87334 -18.7859,10.84319 l -157.0209,-0.65843 c -7.3269,-0.0288 -15.1706,2.21143 -20.9148,6.7594 -8.6642,6.85941 -13.7405,17.85666 -17.1573,28.36535 -3.294,10.13446 -3.7776,21.25279 -2.7058,31.85539 1.568,15.50191 4.5238,31.89899 13.201,44.84012 5.0784,7.57348 12.2239,17.01472 21.343,17.11077 62.0187,0.65322 168.4493,0.98863 168.4493,0.98863 14.2384,0.082 26.7764,12.82652 35.0528,24.41309 5.0162,7.02288 6.1359,16.32099 7.1066,24.8966 1.2829,11.27886 0.2712,22.84221 -1.7899,34.00533 -2.0641,11.21367 -3.141,23.83942 -10.4875,32.55941 -6.0076,7.13157 -11.0251,7.81549 -24.7861,12.97197 0,0 -311.4517,-4.20551 -313.0749,-2.98125 -5.3882,4.06359 -11.5086,-8.21646 -14.2485,-14.38405 -2.983,-6.71354 -1.0106,-14.66188 -1.2179,-22.00453 -0.3211,-10.28401 -0.1951,-30.86595 -0.1951,-30.86595 z"
       id="path2240-0"
       sodipodi:nodetypes="ccsccssssssssssssssssssssssssssssssscc" />
    <path
       id="path2240-7-9"
       style="fill:#e35656;fill-opacity:1;stroke-width:2.93429"
       d="m 2341.8468,29.454774 c 0,0 -23.167,5.623881 -30.6144,14.021664 -10.6819,12.04322 -14.7285,45.989696 -14.7285,45.989696 l 1.1018,478.439226 c 0,0 -0.127,20.5858 0.1813,30.86977 0.2333,7.34256 -1.7571,15.29381 1.2313,22.0073 2.7393,6.16761 8.8637,18.4429 14.2515,14.37926 0.4019,-0.31184 20.5878,-0.26725 50.4081,-0.0415 V 29.591001 Z" />
    <path
       id="path2240-5-3"
       style="fill:#e35656;fill-opacity:1;stroke-width:2.93429"
       d="m 2448.9855,122.55111 c -6.4561,3.28556 -6.0608,17.91195 -6.0608,17.91195 v 21.7306 c 1.036,-0.36542 2.0048,-0.57666 2.8939,-0.57146 l 186.9722,0.9966 c 6.622,0.0335 12.351,-6.27964 15.9713,-11.82533 6.0751,-9.30589 8.1018,-20.69627 9.1178,-32.06168 l -194.5145,-1e-5 c 0,0 -8.506,0.82879 -14.3805,3.81865 z"
       sodipodi:nodetypes="sccccsccs" />
    <path
       id="path2240-5-6-6"
       style="fill:#e35656;fill-opacity:1;stroke-width:2.93429"
       d="m 2442.2807,340.02552 c -6.456,3.28557 -6.0608,17.91199 -6.0608,17.91199 v 21.73058 c 1.036,-0.36554 2.0059,-0.57654 2.894,-0.57145 l 186.9724,0.9966 c 6.622,0.0334 12.351,-6.2796 15.9713,-11.82532 6.075,-9.3059 8.1017,-20.69625 9.1178,-32.06166 h -194.5143 c 0,0 -8.5062,0.82798 -14.3808,3.81855 z"
       sodipodi:nodetypes="sccccsccs" />
    <path
       id="path2240-5-2-0"
       style="fill:#e35656;fill-opacity:1;stroke-width:2.93429"
       d="m 2453.804,597.26277 c -6.456,3.2858 -6.0608,17.91196 -6.0608,17.91196 v 21.73058 c 1.036,-0.36554 2.0059,-0.57654 2.8938,-0.57147 l 186.9725,0.9966 c 6.6217,0.0336 12.3507,-6.27963 15.9712,-11.82532 6.0748,-9.30588 8.1018,-20.69627 9.1176,-32.06171 l -194.5145,-3e-5 c 0,0 -8.5061,0.82798 -14.3805,3.81868 z"
       sodipodi:nodetypes="sccccsccs" />
    <path
       id="path2299-6"
       style="fill:#e35656;fill-opacity:1;stroke-width:2.7183"
       d="m 1668.0613,56.975221 c -9.8214,8.20178 -18.4556,18.527471 -18.5169,30.35899 l -2.4349,504.498879 c -0.046,9.17025 9.0167,16.24901 15.5202,22.71394 7.4718,7.4265 16.2626,14.16658 26.196,17.67395 3.8435,1.35735 7.8581,2.27619 11.9362,2.84354 V 107.93678 c 0,0 -5.3494,-26.033269 -13.4429,-35.935293 -4.2272,-5.171882 -11.6253,-10.43744 -19.2571,-15.026266 z" />
    <path
       id="path2299-2"
       style="fill:#e35656;fill-opacity:1;stroke-width:2.7183"
       d="m 1786.3154,219.92747 c -2.6709,-0.0889 -18.078,1.28938 -20.0035,2.68373 -13.9541,10.10779 -8.4024,25.61717 -8.9544,28.857 l 116.9238,351.6398 c 0,0 5.0837,11.27109 8.02,14.32818 4.3452,4.52658 8.4479,5.13645 13.758,8.47935 6.9329,4.3645 14.9529,8.02017 23.1224,9.20305 1.6627,-7.90172 3.7503,-19.90899 2.9806,-27.5666 -1.9926,-19.80568 -15.9628,-59.19399 -15.9628,-59.19399 L 1800.7337,233.1213 c 0,0 -2.843,-12.80774 -14.4183,-13.19383 z"
       sodipodi:nodetypes="ssccsscsccs" />
    <path
       id="path2299-1"
       style="fill:#e35656;fill-opacity:1;stroke-width:2.7183"
       d="m 2082.0435,256.08375 -0.069,0.26447 -2.2938,347.15919 c -0.1708,19.24597 9.7723,27.81829 23.4714,33.0237 6.6984,2.54512 16.5304,3.95886 26.6218,4.24824 0,0 -0.4158,-337.83786 -0.3361,-339.34383 0.4678,-9.52192 -5.6217,-18.51427 -10.94,-26.42607 -4.1883,-6.2282 -9.3056,-12.4612 -16.0137,-15.82653 -6.1606,-3.09052 -20.443,-3.09879 -20.443,-3.09879 z"
       sodipodi:nodetypes="cccscsssc" />
  </g>
</svg>
