<?xml version="1.0" encoding="UTF-8" standalone="no"?>
<!-- Created with Inkscape (http://www.inkscape.org/) -->

<svg
   width="5.8892179mm"
   height="6.0241947mm"
   viewBox="0 0 5.8892179 6.0241947"
   version="1.1"
   id="svg1"
   inkscape:version="1.4.2 (ebf0e94, 2025-05-08)"
   sodipodi:docname="tour.svg"
   xmlns:inkscape="http://www.inkscape.org/namespaces/inkscape"
   xmlns:sodipodi="http://sodipodi.sourceforge.net/DTD/sodipodi-0.dtd"
   xmlns="http://www.w3.org/2000/svg"
   xmlns:svg="http://www.w3.org/2000/svg">
  <sodipodi:namedview
     id="namedview1"
     pagecolor="#1e0e1c"
     bordercolor="#000000"
     borderopacity="0.25"
     inkscape:showpageshadow="2"
     inkscape:pageopacity="0.0"
     inkscape:pagecheckerboard="0"
     inkscape:deskcolor="#d1d1d1"
     inkscape:document-units="mm"
     inkscape:zoom="3.3552831"
     inkscape:cx="45.152672"
     inkscape:cy="-21.905752"
     inkscape:window-width="1492"
     inkscape:window-height="762"
     inkscape:window-x="0"
     inkscape:window-y="0"
     inkscape:window-maximized="1"
     inkscape:current-layer="layer1" />
  <defs
     id="defs1" />
  <g
     inkscape:label="Layer 1"
     inkscape:groupmode="layer"
     id="layer1"
     transform="translate(-6.6145832,-11.377083)">
    <path
       style="fill:none;fill-opacity:1;stroke:#ffffff;stroke-width:0.283018;stroke-linecap:round;stroke-linejoin:round;stroke-miterlimit:1.5;stroke-dasharray:none;stroke-opacity:1;paint-order:normal"
       d="m 9.5023195,16.94364 -2.723748,-3.72246 c 0,0 0.423578,-0.24806 0.658239,-0.24968 0.17711,-9.7e-4 0.499353,0.18158 0.499353,0.18158 z"
       id="path52"
       sodipodi:nodetypes="ccscc" />
    <path
       style="fill:none;fill-opacity:1;stroke:#ffffff;stroke-width:0.283018;stroke-linecap:round;stroke-linejoin:round;stroke-miterlimit:1.5;stroke-dasharray:none;stroke-opacity:1;paint-order:normal"
       d="m 9.6384715,16.94364 2.7237465,-3.72246 c 0,0 -0.423579,-0.24806 -0.65824,-0.24968 -0.17711,-9.7e-4 -0.499353,0.18158 -0.499353,0.18158 z"
       id="path126"
       sodipodi:nodetypes="ccscc" />
    <path
       style="fill:none;fill-opacity:1;stroke:#ffffff;stroke-width:0.283018;stroke-linecap:round;stroke-linejoin:round;stroke-miterlimit:1.5;stroke-dasharray:none;stroke-opacity:1;paint-order:normal"
       d="m 9.5250155,16.96633 v -3.97212 c 0,0 -0.459433,-0.20816 -0.703633,-0.20429 -0.318182,0.005 -0.907916,0.29507 -0.907916,0.29507 z"
       id="path127"
       sodipodi:nodetypes="ccscc" />
    <path
       style="fill:none;fill-opacity:1;stroke:#ffffff;stroke-width:0.283018;stroke-linecap:round;stroke-linejoin:round;stroke-miterlimit:1.5;stroke-dasharray:none;stroke-opacity:1;paint-order:normal"
       d="m 9.5477175,16.96633 v -3.97212 c 0,0 0.4594355,-0.20816 0.7036365,-0.20429 0.318181,0.005 0.907915,0.29507 0.907915,0.29507 z"
       id="path128"
       sodipodi:nodetypes="ccscc" />
    <path
       d="m 9.5477745,11.51861 c -0.651611,-0.002 -1.336294,0.16901 -1.883746,0.52241 -0.397131,0.25637 -0.907942,1.08931 -0.907942,1.08931 l 0.093602,0.0515 c 0.1307012,-0.07 0.411941,-0.20881 0.587354,-0.21003 0.177111,-9.7e-4 0.499017,0.18136 0.499017,0.18136 l 0.33229,0.8038 0.0094,0.006 -0.364464,-0.87694 c 0,0 0.589761,-0.2909 0.907942,-0.29542 0.244201,-0.003 0.703771,0.20417 0.703771,0.20417 v 1.65031 l 0.0228,0.0123 v -1.66259 c 0,0 0.4595725,-0.20805 0.7037725,-0.20418 0.318182,0.005 0.907943,0.29543 0.907943,0.29543 l -0.534704,1.28821 0.104717,-0.0714 0.475033,-1.14897 c 0,0 0.32249,-0.18249 0.499601,-0.18136 0.205724,9.8e-4 0.556586,0.19222 0.640006,0.23928 l 0.01813,-0.0123 c 0,0 -0.551912,-0.88381 -0.975804,-1.15775 -0.535172,-0.34586 -1.201532,-0.52072 -1.8387325,-0.52279 z"
       style="fill:#ffffff;fill-opacity:1;stroke:#ffffff;stroke-width:0.283018;stroke-linecap:round;stroke-linejoin:round;stroke-miterlimit:1.5"
       id="path137"
       sodipodi:nodetypes="ssccccccccccccccccccccss" />
    <rect
       style="fill:#1e0e1c;fill-opacity:1;stroke:none;stroke-width:0.233546;stroke-linecap:round;stroke-linejoin:round;stroke-miterlimit:1.5;stroke-dasharray:none;stroke-opacity:1;paint-order:normal"
       id="rect137"
       width="2.3412797"
       height="1.1612748"
       x="8.3657255"
       y="16.240004" />
    <rect
       style="fill:#ffffff;fill-opacity:1;stroke:none;stroke-width:0.279547;stroke-linecap:round;stroke-linejoin:round;stroke-miterlimit:1.5;stroke-dasharray:none;stroke-opacity:1;paint-order:normal"
       id="rect138"
       width="1.5058365"
       height="1.021405"
       x="8.8213806"
       y="16.376188"
       ry="0.23109354" />
  </g>
</svg>
