<?xml version="1.0" encoding="UTF-8" standalone="no"?>
<!-- Created with Inkscape (http://www.inkscape.org/) -->

<svg
   width="14.515139mm"
   height="23.669188mm"
   viewBox="0 0 14.515139 23.669187"
   version="1.1"
   id="svg1"
   inkscape:version="1.4.2 (ebf0e94, 2025-05-08)"
   sodipodi:docname="carrot-negative-0.8.svg"
   xmlns:inkscape="http://www.inkscape.org/namespaces/inkscape"
   xmlns:sodipodi="http://sodipodi.sourceforge.net/DTD/sodipodi-0.dtd"
   xmlns="http://www.w3.org/2000/svg"
   xmlns:svg="http://www.w3.org/2000/svg">
  <sodipodi:namedview
     id="namedview1"
     pagecolor="#ffffff"
     bordercolor="#000000"
     borderopacity="0.25"
     inkscape:showpageshadow="2"
     inkscape:pageopacity="0.0"
     inkscape:pagecheckerboard="0"
     inkscape:deskcolor="#d1d1d1"
     inkscape:document-units="mm"
     inkscape:zoom="6.6923729"
     inkscape:cx="13.224009"
     inkscape:cy="39.37318"
     inkscape:window-width="1492"
     inkscape:window-height="762"
     inkscape:window-x="0"
     inkscape:window-y="0"
     inkscape:window-maximized="1"
     inkscape:current-layer="layer1"
     showgrid="false" />
  <defs
     id="defs1" />
  <g
     inkscape:label="Layer 1"
     inkscape:groupmode="layer"
     id="layer1"
     transform="translate(-105.43156,-64.969345)">
    <g
       id="g1"
       transform="translate(89.128421,-6.9002984)">
      <path
         style="fill:#b72d2d;fill-opacity:1;stroke:none;stroke-width:2.202;stroke-linejoin:round;stroke-miterlimit:1.5;stroke-dasharray:none;stroke-opacity:1"
         d="m 20.407807,79.01682 c 0,0 -0.140048,0.09898 -0.20964,0.149071 -0.109151,0.07857 -0.220779,0.15394 -0.32609,0.237583 -0.09483,0.07532 -0.189398,0.151773 -0.27485,0.237582 -0.09092,0.0913 -0.173256,0.19116 -0.25156,0.293484 -0.05366,0.07012 -0.110069,0.139738 -0.14907,0.218951 -0.04837,0.09824 -0.07596,0.205876 -0.10249,0.312118 -0.02635,0.105513 -0.04549,0.213181 -0.0559,0.321435 -0.0082,0.08503 -0.0042,0.170799 -0.005,0.256217 -5.15e-4,0.05279 -0.0038,0.10573 0,0.15839 0.007,0.09703 0.0231,0.193375 0.0419,0.288824 0.0198,0.100507 0.04446,0.200211 0.0745,0.298146 0.05041,0.164379 0.104483,0.328595 0.17702,0.484481 0.10271,0.220728 0.226884,0.431958 0.36337,0.633556 0.337063,0.497862 0.743064,0.94542 1.11941,1.414293 0.291194,0.362786 0.613158,0.70201 0.88099,1.08237 0.485482,0.689453 0.869627,1.44497 1.30891,2.164739 0.641724,1.05147 1.263909,2.115534 1.9382,3.146423 0.34654,0.529807 0.70577,1.051744 1.08237,1.560623 0.451345,0.609877 0.909442,1.216642 1.4096,1.787171 0.285534,0.325708 0.567301,0.661555 0.90617,0.931338 0.215023,0.171186 0.446725,0.333382 0.7048,0.427916 0.151544,0.05551 0.316967,0.06958 0.47825,0.07551 0.100967,0.0037 0.20784,0.01132 0.30206,-0.02516 0.128332,-0.04969 0.231662,-0.152697 0.32723,-0.251714 0.100248,-0.103867 0.180916,-0.226595 0.25171,-0.352398 0.06268,-0.111376 0.105612,-0.232943 0.15103,-0.352401 0.04715,-0.124005 0.08778,-0.25049 0.12586,-0.377571 0.03739,-0.124772 0.0816,-0.248721 0.10068,-0.377571 0.03688,-0.249138 0.02898,-0.503315 0.0252,-0.75514 -0.008,-0.529604 -0.03051,-1.060803 -0.10068,-1.585798 -0.0885,-0.662195 -0.262641,-1.310141 -0.40275,-1.963367 -0.120814,-0.563267 -0.262679,-1.121979 -0.37757,-1.686484 -0.102075,-0.501535 -0.1812,-1.007487 -0.27688,-1.510281 -0.235016,-1.235007 -0.473968,-2.469364 -0.72997,-3.700193 -0.111935,-0.53817 -0.247958,-1.071294 -0.3524,-1.610968 -0.143885,-0.743488 -0.162519,-1.514148 -0.37757,-2.240254 -0.0779,-0.263037 -0.176232,-0.526107 -0.32723,-0.755142 -0.228686,-0.346873 -0.505553,-0.682714 -0.85582,-0.906168 -0.20132,-0.128432 -0.442739,-0.196431 -0.67963,-0.226545 -0.241954,-0.03076 -0.490387,0.0047 -0.72997,0.05035 -0.190279,0.03629 -0.369776,0.115625 -0.55377,0.1762 -0.153877,0.05066 -0.46009,0.156585 -0.46009,0.156585 0,0 0.01857,-0.784111 -0.004,-1.175194 -0.01855,-0.321409 -0.06797,-0.640326 -0.10784,-0.959792 -0.06874,-0.550877 -0.08389,-1.113451 -0.22647,-1.649979 -0.06669,-0.250957 -0.175892,-0.489864 -0.29117,-0.72254 -0.078,-0.157438 -0.15422,-0.320435 -0.26961,-0.452935 -0.136049,-0.156221 -0.288822,-0.322546 -0.48529,-0.388231 -0.115964,-0.03877 -0.249427,-0.02394 -0.36666,0.0108 -0.0928,0.0275 -0.180542,0.0816 -0.24803,0.150979 -0.08083,0.0831 -0.131908,0.193387 -0.17255,0.301956 -0.0257,0.06866 -0.01438,0.148227 -0.0431,0.215683 -0.03946,0.09267 -0.116722,0.164208 -0.17255,0.248036 -0.292964,0.439896 -0.85195,1.337239 -0.85195,1.337239 0,0 -0.467594,-0.668424 -0.70097,-1.00293 -0.140362,-0.201187 -0.257832,-0.420363 -0.42058,-0.603914 -0.118236,-0.133349 -0.251518,-0.255835 -0.39901,-0.355875 -0.05322,-0.0361 -0.109964,-0.07151 -0.17255,-0.08628 -0.05948,-0.01404 -0.123009,-0.0098 -0.18333,0 -0.04488,0.0073 -0.08889,0.02251 -0.12941,0.04314 -0.05511,0.02806 -0.107058,0.0643 -0.15098,0.107842 -0.03473,0.03443 -0.06134,0.07658 -0.0863,0.118626 -0.03858,0.06499 -0.07473,0.132706 -0.0971,0.204899 -0.02694,0.08693 -0.03266,0.179196 -0.0431,0.269605 -0.01158,0.100243 -0.02294,0.201055 -0.0216,0.301955 0.0029,0.220317 0.04215,0.438656 0.0647,0.657837 0.05512,0.535865 0.17254,1.606841 0.17254,1.606841 0,0 -1.01435,-0.08514 -1.52056,-0.05392 -0.181677,0.01121 -0.365236,0.03274 -0.53921,0.08627 -0.121426,0.03736 -0.232505,0.10292 -0.3451,0.161763 -0.06994,0.03655 -0.145708,0.06642 -0.20489,0.118626 -0.08465,0.07467 -0.157416,0.167202 -0.20491,0.269603 -0.04183,0.0902 -0.06983,0.191881 -0.0647,0.291174 0.0053,0.102175 0.05475,0.198038 0.0971,0.291171 0.0587,0.129079 0.124399,0.258158 0.21569,0.366662 0.200316,0.238085 0.465289,0.413998 0.71175,0.603914 0.18405,0.141824 0.368868,0.285419 0.57156,0.399016 0.799701,0.448183 2.51985,1.101752 2.51985,1.101752 z"
         id="path12"
         sodipodi:nodetypes="cssssssssssssssssssssssssssssssssssssssssscssssssssssscsssssssssssscssssssssssc" />
      <path
         style="fill:#464646;fill-opacity:1;stroke:none;stroke-width:2.202;stroke-linejoin:round;stroke-miterlimit:1.5;stroke-dasharray:none;stroke-opacity:1"
         d="m 20.168868,74.365588 0.06099,0.574815 0.02588,0.216249 0.01479,0.181131 -0.01109,0.20701 -0.03327,0.153406 -0.04621,0.125685 -0.05175,0.105351 -0.09426,0.136774 -0.109051,0.11829 -0.125682,0.09981 -0.123836,0.07578 -0.188523,0.07948 -0.146016,0.02957 -0.129379,0.01109 -0.1608,-0.0019 -0.430652,-0.02957 -0.532304,-0.02588 -0.38753,0.0042 0.125058,0.09095 0.311091,0.241845 0.179835,0.12919 0.129191,0.07751 0.248047,0.128159 0.16433,0.07648 0.268719,0.127124 0.118853,0.05064 0.456822,0.199472 0.209806,0.08475 0.1788,0.07441 0.282152,0.114724 0.41238,0.161229 0.115755,0.04754 0.06408,0.03721 0.06718,0.04134 0.05478,0.03824 0.04651,0.04031 0.05375,0.04961 0.04237,0.04444 0.05271,0.06408 0.05788,0.08578 0.05995,0.106456 0.04274,0.09189 0.03887,0.148987 0.02915,0.226716 -0.01619,0.204044 -0.06478,0.210524 -0.103643,0.200805 -0.07449,0.106881 -0.116596,0.119835 -0.638046,0.456674 -0.129553,0.116596 -0.07449,0.08097 -0.06154,0.08097 -0.05506,0.06801 -0.02268,0.103643 -0.02267,0.161941 v 0.100404 l -0.0032,0.148984 0.02915,0.106881 0.06478,0.24615 0.119835,0.333597 0.07773,0.13603 0.204044,0.330356 0.200805,0.27854 0.592704,0.722255 1.016984,1.224269 0.11012,0.152223 0.320643,0.485822 0.657479,1.08824 1.347343,2.270405 2.709622,4.114482 1.222451,1.290265 0.589476,0.435091 0.154387,-0.224562 0.126318,-0.589479 0.02807,-0.982464 -0.0421,-0.856146 -1.094745,-5.136878 -1.207027,-5.97899 -0.238598,-1.656154 -0.28271,-0.592934 -0.301255,-0.301255 -0.140586,-0.120502 -0.194143,-0.03348 -0.23431,-0.0067 -0.254392,0.06025 -0.756486,0.281173 -0.374893,0.06694 -0.241007,-0.02678 -0.200834,-0.06695 -0.200837,-0.120501 -0.374896,-0.394981 -0.08703,-0.388284 v -0.776568 l -0.03347,-0.776568 -0.227616,-1.914644 -0.13389,-0.435144 -0.6159,0.984099 -0.267782,0.42845 -0.234309,0.214226 -0.334727,0.16067 -0.220922,0.02008 -0.461923,-0.04686 -0.334727,-0.194143 z"
         id="path14" />
    </g>
    <path
       d="m 112.19871,64.969553 c -0.0777,-0.0021 -0.15721,0.01188 -0.23048,0.03359 -0.0928,0.0275 -0.18056,0.08203 -0.24804,0.151412 -0.0808,0.0831 -0.13196,0.193221 -0.1726,0.30179 -0.0257,0.06866 -0.0147,0.148035 -0.0434,0.215491 -0.0395,0.09267 -0.11677,0.164219 -0.1726,0.248047 -0.29296,0.439896 -0.85163,1.337386 -0.85163,1.337386 0,0 -0.46787,-0.668534 -0.70125,-1.00304 -0.14036,-0.201187 -0.2579,-0.420546 -0.42064,-0.604097 -0.11824,-0.133349 -0.25145,-0.255494 -0.39895,-0.355534 -0.0532,-0.0361 -0.11001,-0.07153 -0.17259,-0.0863 -0.0595,-0.01404 -0.12262,-0.0098 -0.18294,0 -0.0449,0.0073 -0.0892,0.02226 -0.12971,0.04289 -0.0227,0.01158 -0.0448,0.02497 -0.0661,0.03927 v 4.32325 l 0.0739,-0.0067 0.14625,-0.02946 0.18862,-0.07958 0.1235,-0.07545 0.12609,-0.100252 0.10904,-0.117822 0.094,-0.136943 0.0517,-0.10542 0.0465,-0.125574 0.0331,-0.153479 0.0109,-0.207222 -0.0145,-0.180868 -0.0258,-0.216524 -0.061,-0.574642 0.43976,0.610299 0.33487,0.193787 0.46198,0.04703 0.22066,-0.02015 0.33487,-0.160713 0.23409,-0.213941 0.2682,-0.428397 0.61547,-0.984436 0.13436,0.435115 0.22737,1.915129 0.0336,0.77618 v 0.776696 l 0.0868,0.38809 0.37517,0.395325 0.2005,0.120406 0.20103,0.06666 0.24081,0.02687 0.37517,-0.06666 0.75654,-0.28112 0.25425,-0.06046 0.23409,0.0067 0.19431,0.03359 0.14056,0.120407 0.30127,0.301273 0.28267,0.592729 0.23875,1.65623 1.20716,5.978963 1.0945,5.137154 0.0419,0.855762 -0.0279,0.982885 -0.12609,0.589112 -0.15451,0.224792 -0.58963,-0.435116 -1.22215,-1.29036 -2.7099,-4.114481 -1.34721,-2.270145 -0.65732,-1.088306 -0.32091,-0.485758 -0.11007,-0.152446 -1.017,-1.224215 -0.59273,-0.722436 -0.2005,-0.278536 -0.20412,-0.330212 -0.078,-0.135909 -0.11989,-0.33383 -0.0646,-0.24598 -0.0289,-0.10697 0.003,-0.148828 v -0.100769 l 0.0227,-0.161748 0.0227,-0.103353 0.0548,-0.06821 0.0615,-0.08113 0.0744,-0.08062 0.1297,-0.116788 0.63821,-0.45682 0.11627,-0.119889 0.0749,-0.106454 0.10335,-0.201021 0.0646,-0.210323 0.0165,-0.204122 -0.0294,-0.22686 -0.0388,-0.148828 -0.0429,-0.09198 -0.0599,-0.106453 -0.0579,-0.08578 -0.0527,-0.06408 -0.0424,-0.04444 -0.0537,-0.04961 -0.0465,-0.04031 -0.0548,-0.03824 -0.0672,-0.04134 -0.0641,-0.03721 -0.11576,-0.04754 -0.41238,-0.16123 -0.28215,-0.114722 -0.1788,-0.07441 -0.20981,-0.08475 -0.43511,-0.19017 v 1.200444 c 0.60948,0.256363 1.14101,0.45837 1.14101,0.45837 0,0 -0.14021,0.09874 -0.2098,0.148828 -0.10915,0.07857 -0.22077,0.154069 -0.32608,0.237712 -0.0948,0.07532 -0.18947,0.151902 -0.27492,0.237711 -0.0909,0.0913 -0.17284,0.191198 -0.25115,0.293522 -0.0264,0.03453 -0.0537,0.0689 -0.0791,0.104387 v 2.093929 c 0.0186,0.04728 0.0385,0.09401 0.0599,0.140043 0.10271,0.220728 0.2268,0.431955 0.36329,0.633553 0.33706,0.497862 0.74296,0.945511 1.11931,1.414384 0.29119,0.362786 0.61325,0.701744 0.88108,1.082104 0.48548,0.689453 0.86968,1.444957 1.30897,2.164726 0.64172,1.05147 1.26409,2.115689 1.93838,3.146578 0.34654,0.529807 0.7055,1.051749 1.0821,1.560628 0.45135,0.609877 0.90958,1.216442 1.40974,1.786971 0.28553,0.325708 0.56701,0.661944 0.90588,0.931727 0.21503,0.171186 0.4468,0.333346 0.70487,0.42788 0.15154,0.05551 0.31724,0.06952 0.47852,0.07545 0.10097,0.0037 0.20758,0.01116 0.30179,-0.02532 0.12834,-0.04969 0.23155,-0.152648 0.32712,-0.251665 0.10025,-0.103867 0.18138,-0.22663 0.25218,-0.352433 0.0627,-0.111376 0.10547,-0.232975 0.15089,-0.352433 0.0472,-0.124005 0.0875,-0.250157 0.12558,-0.377238 0.0374,-0.124772 0.0817,-0.248905 0.10076,-0.377755 0.0369,-0.249138 0.0291,-0.503168 0.0253,-0.754993 -0.008,-0.529604 -0.0306,-1.060954 -0.10077,-1.585949 -0.0885,-0.662195 -0.26246,-1.309962 -0.40256,-1.963188 -0.12082,-0.56327 -0.26287,-1.122217 -0.37776,-1.686722 -0.10207,-0.501535 -0.1813,-1.007708 -0.27698,-1.510502 -0.23502,-1.235007 -0.47367,-2.469203 -0.72967,-3.700032 -0.11194,-0.53817 -0.24799,-1.071081 -0.35244,-1.610755 -0.14388,-0.743488 -0.1627,-1.514067 -0.37775,-2.240173 -0.0779,-0.263037 -0.17611,-0.526475 -0.32711,-0.75551 -0.22869,-0.346873 -0.5055,-0.682433 -0.85577,-0.905887 -0.20132,-0.128432 -0.44265,-0.196746 -0.67954,-0.22686 -0.24195,-0.03076 -0.4906,0.005 -0.73019,0.05064 -0.19028,0.03629 -0.36998,0.115642 -0.55397,0.176217 -0.15388,0.05066 -0.45992,0.156579 -0.45992,0.156579 0,0 0.0184,-0.784039 -0.004,-1.175122 -0.0186,-0.321409 -0.0676,-0.640682 -0.10749,-0.960148 -0.0687,-0.550877 -0.0843,-1.113501 -0.22686,-1.650029 -0.0667,-0.250957 -0.17566,-0.48976 -0.29094,-0.722436 -0.078,-0.157438 -0.15436,-0.320186 -0.26975,-0.452686 -0.13605,-0.156221 -0.28877,-0.322921 -0.48524,-0.388606 -0.0435,-0.01454 -0.0893,-0.0215 -0.13591,-0.02274 z"
       style="fill:#2d2d2d;stroke-width:2.202;stroke-linejoin:round;stroke-miterlimit:1.5"
       id="path26" />
    <path
       d="m 108.40773,69.613714 v 0.882633 l 0.43511,0.19017 0.20981,0.08475 0.1788,0.07441 0.28215,0.114721 0.41238,0.161231 0.11576,0.04754 0.0641,0.03721 0.0672,0.04134 0.0548,0.03824 0.0465,0.04031 0.0537,0.04961 0.0424,0.04444 0.0527,0.06408 0.0579,0.08578 0.0599,0.106453 0.0429,0.09198 0.0388,0.148828 0.0294,0.22686 -0.0165,0.204122 -0.0646,0.210323 -0.10335,0.201021 -0.0749,0.106454 -0.11627,0.119889 -0.63821,0.45682 -0.12971,0.116788 -0.0744,0.08062 -0.0615,0.08113 -0.0548,0.06821 -0.0227,0.103353 -0.0227,0.161747 v 0.10077 l -0.003,0.148828 0.0289,0.10697 0.0646,0.24598 0.11989,0.33383 0.078,0.135909 0.20412,0.330212 0.2005,0.278536 0.59273,0.722436 1.017,1.224215 0.11007,0.152446 0.32091,0.485758 0.65732,1.088306 1.34721,2.270145 2.70991,4.114478 1.22214,1.29036 0.58963,0.435116 0.15452,-0.224792 0.12609,-0.589112 0.0279,-0.982885 -0.0419,-0.855762 -1.09451,-5.137154 -1.20716,-5.978964 -0.23875,-1.656229 -0.28267,-0.592729 -0.30127,-0.301273 -0.14056,-0.120407 -0.19431,-0.03359 -0.23409,-0.0067 -0.25425,0.06046 -0.75654,0.28112 -0.37517,0.06666 -0.24081,-0.02687 -0.20103,-0.06666 -0.2005,-0.120406 -0.37517,-0.395325 -0.0868,-0.38809 v -0.776696 l -0.0336,-0.77618 -0.22737,-1.915129 -0.13436,-0.435115 -0.61547,0.984436 -0.2682,0.428397 -0.23409,0.213941 -0.33487,0.160713 -0.22066,0.02015 -0.46198,-0.04703 -0.33487,-0.193787 -0.43976,-0.610299 0.061,0.574642 0.0258,0.216524 0.0145,0.180868 -0.0109,0.207222 -0.0331,0.153479 -0.0465,0.125574 -0.0517,0.10542 -0.094,0.136943 -0.10904,0.117822 -0.12609,0.100252 -0.1235,0.07545 -0.18862,0.07958 -0.14625,0.02946 z"
       style="fill:#464646;stroke-width:2.202;stroke-linejoin:round;stroke-miterlimit:1.5"
       id="path25-5" />
  </g>
</svg>
