<?xml version="1.0" encoding="UTF-8" standalone="no"?>
<!-- Created with Inkscape (http://www.inkscape.org/) -->

<svg
   width="14.515139mm"
   height="23.669188mm"
   viewBox="0 0 14.515139 23.669187"
   version="1.1"
   id="svg1"
   inkscape:version="1.4.2 (ebf0e94, 2025-05-08)"
   sodipodi:docname="carrot-0.2.svg"
   xmlns:inkscape="http://www.inkscape.org/namespaces/inkscape"
   xmlns:sodipodi="http://sodipodi.sourceforge.net/DTD/sodipodi-0.dtd"
   xmlns="http://www.w3.org/2000/svg"
   xmlns:svg="http://www.w3.org/2000/svg">
  <sodipodi:namedview
     id="namedview1"
     pagecolor="#ffffff"
     bordercolor="#000000"
     borderopacity="0.25"
     inkscape:showpageshadow="2"
     inkscape:pageopacity="0.0"
     inkscape:pagecheckerboard="0"
     inkscape:deskcolor="#d1d1d1"
     inkscape:document-units="mm"
     inkscape:zoom="3.1825516"
     inkscape:cx="-41.790367"
     inkscape:cy="70.22667"
     inkscape:window-width="1492"
     inkscape:window-height="762"
     inkscape:window-x="0"
     inkscape:window-y="0"
     inkscape:window-maximized="1"
     inkscape:current-layer="layer1"
     showgrid="false" />
  <defs
     id="defs1" />
  <g
     inkscape:label="Layer 1"
     inkscape:groupmode="layer"
     id="layer1"
     transform="translate(-105.43156,-64.969345)">
    <g
       id="g617"
       transform="matrix(0.4233218,-0.18827738,0.18736906,0.42537401,-32.66207,124.63032)">
      <path
         style="opacity:1;fill:#ba671e;fill-opacity:1;stroke:#003313;stroke-width:1.065;stroke-linejoin:bevel;stroke-dasharray:none;stroke-opacity:1"
         d="m 332.61116,21.800272 c 2.32409,-0.03819 5.08955,-0.374001 7.15189,0.698198 0.88632,0.460788 1.5073,1.472444 1.7317,2.445861 0.58619,2.542744 -0.77453,5.162627 -1.26991,7.724604 -0.76136,3.937515 -1.66833,7.846594 -2.61457,11.743813 -1.13771,4.685772 -1.49753,9.690427 -3.68136,13.98947 -0.40614,0.799521 -0.97948,1.549788 -1.69729,2.08731 -0.43368,0.324676 -0.96198,0.703347 -1.49859,0.629055 -0.64842,-0.08982 -1.14483,-0.698781 -1.53597,-1.223673 -0.88058,-1.181724 -1.24851,-2.683666 -1.65105,-4.10135 -1.97432,-6.95304 -2.44909,-14.246833 -3.68176,-21.368849 -0.54598,-3.154498 -2.29208,-6.326889 -1.64512,-9.462225 0.17334,-0.840069 0.78574,-2.02573 1.53253,-2.447728 2.6608,-1.503569 5.80367,-0.664284 8.85949,-0.714483 z"
         id="path612"
         sodipodi:nodetypes="ssssssssssssss" />
      <path
         style="opacity:1;fill:#00a13d;fill-opacity:1;stroke:#003313;stroke-width:1.065;stroke-linejoin:bevel;stroke-dasharray:none;stroke-opacity:1"
         d="m 327.75964,21.653561 c 0,0 -1.52553,-1.530396 -2.25209,-2.329533 -0.99961,-1.099456 -2.15869,-2.098781 -2.89641,-3.388659 -0.63672,-1.113278 -1.65933,-2.421075 -1.25336,-3.637624 0.11308,-0.338863 0.53283,-0.558996 0.88764,-0.600526 1.87067,-0.21896 5.28459,1.999828 5.28459,1.999828 0,0 0.67647,-1.958555 0.98467,-2.976373 0.28079,-0.9272922 0.45397,-1.9683285 0.99749,-2.7639795 0.24217,-0.3545165 0.61498,-0.9066217 1.02515,-0.7797686 0.75631,0.2339047 0.89306,2.2777781 1.10488,3.0405701 0.34907,1.257075 0.50192,3.032014 0.50192,3.032014 0,0 2.47982,-1.630352 3.73056,-2.428722 0.56244,-0.359015 1.04758,-1.215406 1.69693,-1.061844 0.48725,0.115228 0.64012,0.802427 0.78155,1.282726 0.19967,0.678101 0.0605,1.413114 0.0541,2.119973 -0.008,0.919247 -1.07191,3.899334 -1.32718,4.782466 -0.5738,1.985148 -1.64484,3.770706 -1.64484,3.770706 0,0 -2.44594,0.137065 -3.77225,0.202185 -1.15794,0.05685 -3.90335,-0.263441 -3.90335,-0.263441 z"
         id="path613"
         sodipodi:nodetypes="csssscsssscssssscscc" />
      <path
         style="opacity:1;fill:none;fill-opacity:1;stroke:#003313;stroke-width:0.287213;stroke-linejoin:bevel;stroke-dasharray:none;stroke-opacity:1"
         d="m 335.80267,51.529474 c 0,0 -1.23172,0.534671 -1.87799,0.594913 -0.9171,0.08549 -3.97692,-0.509089 -3.97692,-0.509089"
         id="path614"
         sodipodi:nodetypes="csc" />
      <path
         style="opacity:1;fill:none;fill-opacity:1;stroke:#003313;stroke-width:0.287212;stroke-linejoin:bevel;stroke-dasharray:none;stroke-opacity:1"
         d="m 325.17639,41.703871 c 0,0 1.63855,0.893623 2.50441,1.178679 1.08668,0.357756 2.21462,0.545311 3.33919,0.65482 0.51766,0.05041 1.55828,0 1.55828,0"
         id="path615"
         sodipodi:nodetypes="cssc" />
      <path
         style="opacity:1;fill:none;fill-opacity:1;stroke:#003313;stroke-width:0.347218;stroke-linejoin:bevel;stroke-dasharray:none;stroke-opacity:1"
         d="m 338.98298,37.201801 c 0,0 -1.87928,0.512163 -2.86531,0.569869 -1.39925,0.0819 -6.06773,-0.487658 -6.06773,-0.487658"
         id="path616"
         sodipodi:nodetypes="csc" />
      <path
         style="opacity:1;fill:none;fill-opacity:1;stroke:#003313;stroke-width:0.287212;stroke-linejoin:bevel;stroke-dasharray:none;stroke-opacity:1"
         d="m 323.03202,29.809314 c 0,0 1.63855,0.893623 2.50441,1.178679 1.08668,0.357756 2.21462,0.545311 3.33919,0.65482 0.51766,0.05041 1.55828,0 1.55828,0"
         id="path617"
         sodipodi:nodetypes="cssc" />
    </g>
    <path
       d="m 112.19871,64.969553 c -0.0777,-0.0021 -0.15721,0.01188 -0.23048,0.03359 -0.0928,0.0275 -0.18056,0.08203 -0.24804,0.151412 -0.0808,0.0831 -0.13196,0.193221 -0.1726,0.30179 -0.0257,0.06866 -0.0147,0.148035 -0.0434,0.215491 -0.0395,0.09267 -0.11677,0.164219 -0.1726,0.248047 -0.29296,0.439896 -0.85163,1.337386 -0.85163,1.337386 0,0 -0.46787,-0.668534 -0.70125,-1.00304 -0.14036,-0.201187 -0.2579,-0.420546 -0.42064,-0.604097 -0.11824,-0.133349 -0.25145,-0.255494 -0.39895,-0.355534 -0.0532,-0.0361 -0.11001,-0.07153 -0.17259,-0.0863 -0.0595,-0.01404 -0.12262,-0.0098 -0.18294,0 -0.0449,0.0073 -0.0892,0.02226 -0.12971,0.04289 -0.0227,0.01158 -0.0448,0.02497 -0.0661,0.03927 v 4.32325 l 0.0739,-0.0067 0.14625,-0.02946 0.18862,-0.07958 0.1235,-0.07545 0.12609,-0.100252 0.10904,-0.117822 0.094,-0.136943 0.0517,-0.10542 0.0465,-0.125574 0.0331,-0.153479 0.0109,-0.207222 -0.0145,-0.180868 -0.0258,-0.216524 -0.061,-0.574642 0.43976,0.610299 0.33487,0.193787 0.46198,0.04703 0.22066,-0.02015 0.33487,-0.160713 0.23409,-0.213941 0.2682,-0.428397 0.61547,-0.984436 0.13436,0.435115 0.22737,1.915129 0.0336,0.77618 v 0.776696 l 0.0868,0.38809 0.37517,0.395325 0.2005,0.120406 0.20103,0.06666 0.24081,0.02687 0.37517,-0.06666 0.75654,-0.28112 0.25425,-0.06046 0.23409,0.0067 0.19431,0.03359 0.14056,0.120407 0.30127,0.301273 0.28267,0.592729 0.23875,1.65623 1.20716,5.978963 1.0945,5.137154 0.0419,0.855762 -0.0279,0.982885 -0.12609,0.589112 -0.15451,0.224792 -0.58963,-0.435116 -1.22215,-1.29036 -2.7099,-4.114481 -1.34721,-2.270145 -0.65732,-1.088306 -0.32091,-0.485758 -0.11007,-0.152446 -1.017,-1.224215 -0.59273,-0.722436 -0.2005,-0.278536 -0.20412,-0.330212 -0.078,-0.135909 -0.11989,-0.33383 -0.0646,-0.24598 -0.0289,-0.10697 0.003,-0.148828 v -0.100769 l 0.0227,-0.161748 0.0227,-0.103353 0.0548,-0.06821 0.0615,-0.08113 0.0744,-0.08062 0.1297,-0.116788 0.63821,-0.45682 0.11627,-0.119889 0.0749,-0.106454 0.10335,-0.201021 0.0646,-0.210323 0.0165,-0.204122 -0.0294,-0.22686 -0.0388,-0.148828 -0.0429,-0.09198 -0.0599,-0.106453 -0.0579,-0.08578 -0.0527,-0.06408 -0.0424,-0.04444 -0.0537,-0.04961 -0.0465,-0.04031 -0.0548,-0.03824 -0.0672,-0.04134 -0.0641,-0.03721 -0.11576,-0.04754 -0.41238,-0.16123 -0.28215,-0.114722 -0.1788,-0.07441 -0.20981,-0.08475 -0.43511,-0.19017 v 1.200444 c 0.60948,0.256363 1.14101,0.45837 1.14101,0.45837 0,0 -0.14021,0.09874 -0.2098,0.148828 -0.10915,0.07857 -0.22077,0.154069 -0.32608,0.237712 -0.0948,0.07532 -0.18947,0.151902 -0.27492,0.237711 -0.0909,0.0913 -0.17284,0.191198 -0.25115,0.293522 -0.0264,0.03453 -0.0537,0.0689 -0.0791,0.104387 v 2.093929 c 0.0186,0.04728 0.0385,0.09401 0.0599,0.140043 0.10271,0.220728 0.2268,0.431955 0.36329,0.633553 0.33706,0.497862 0.74296,0.945511 1.11931,1.414384 0.29119,0.362786 0.61325,0.701744 0.88108,1.082104 0.48548,0.689453 0.86968,1.444957 1.30897,2.164726 0.64172,1.05147 1.26409,2.115689 1.93838,3.146578 0.34654,0.529807 0.7055,1.051749 1.0821,1.560628 0.45135,0.609877 0.90958,1.216442 1.40974,1.786971 0.28553,0.325708 0.56701,0.661944 0.90588,0.931727 0.21503,0.171186 0.4468,0.333346 0.70487,0.42788 0.15154,0.05551 0.31724,0.06952 0.47852,0.07545 0.10097,0.0037 0.20758,0.01116 0.30179,-0.02532 0.12834,-0.04969 0.23155,-0.152648 0.32712,-0.251665 0.10025,-0.103867 0.18138,-0.22663 0.25218,-0.352433 0.0627,-0.111376 0.10547,-0.232975 0.15089,-0.352433 0.0472,-0.124005 0.0875,-0.250157 0.12558,-0.377238 0.0374,-0.124772 0.0817,-0.248905 0.10076,-0.377755 0.0369,-0.249138 0.0291,-0.503168 0.0253,-0.754993 -0.008,-0.529604 -0.0306,-1.060954 -0.10077,-1.585949 -0.0885,-0.662195 -0.26246,-1.309962 -0.40256,-1.963188 -0.12082,-0.56327 -0.26287,-1.122217 -0.37776,-1.686722 -0.10207,-0.501535 -0.1813,-1.007708 -0.27698,-1.510502 -0.23502,-1.235007 -0.47367,-2.469203 -0.72967,-3.700032 -0.11194,-0.53817 -0.24799,-1.071081 -0.35244,-1.610755 -0.14388,-0.743488 -0.1627,-1.514067 -0.37775,-2.240173 -0.0779,-0.263037 -0.17611,-0.526475 -0.32711,-0.75551 -0.22869,-0.346873 -0.5055,-0.682433 -0.85577,-0.905887 -0.20132,-0.128432 -0.44265,-0.196746 -0.67954,-0.22686 -0.24195,-0.03076 -0.4906,0.005 -0.73019,0.05064 -0.19028,0.03629 -0.36998,0.115642 -0.55397,0.176217 -0.15388,0.05066 -0.45992,0.156579 -0.45992,0.156579 0,0 0.0184,-0.784039 -0.004,-1.175122 -0.0186,-0.321409 -0.0676,-0.640682 -0.10749,-0.960148 -0.0687,-0.550877 -0.0843,-1.113501 -0.22686,-1.650029 -0.0667,-0.250957 -0.17566,-0.48976 -0.29094,-0.722436 -0.078,-0.157438 -0.15436,-0.320186 -0.26975,-0.452686 -0.13605,-0.156221 -0.28877,-0.322921 -0.48524,-0.388606 -0.0435,-0.01454 -0.0893,-0.0215 -0.13591,-0.02274 z"
       style="fill:#2d2d2d;stroke-width:2.202;stroke-linejoin:round;stroke-miterlimit:1.5"
       id="path26" />
    <path
       d="m 108.40773,69.613714 v 0.882633 l 0.43511,0.19017 0.20981,0.08475 0.1788,0.07441 0.28215,0.114721 0.41238,0.161231 0.11576,0.04754 0.0641,0.03721 0.0672,0.04134 0.0548,0.03824 0.0465,0.04031 0.0537,0.04961 0.0424,0.04444 0.0527,0.06408 0.0579,0.08578 0.0599,0.106453 0.0429,0.09198 0.0388,0.148828 0.0294,0.22686 -0.0165,0.204122 -0.0646,0.210323 -0.10335,0.201021 -0.0749,0.106454 -0.11627,0.119889 -0.63821,0.45682 -0.12971,0.116788 -0.0744,0.08062 -0.0615,0.08113 -0.0548,0.06821 -0.0227,0.103353 -0.0227,0.161747 v 0.10077 l -0.003,0.148828 0.0289,0.10697 0.0646,0.24598 0.11989,0.33383 0.078,0.135909 0.20412,0.330212 0.2005,0.278536 0.59273,0.722436 1.017,1.224215 0.11007,0.152446 0.32091,0.485758 0.65732,1.088306 1.34721,2.270145 2.70991,4.114478 1.22214,1.29036 0.58963,0.435116 0.15452,-0.224792 0.12609,-0.589112 0.0279,-0.982885 -0.0419,-0.855762 -1.09451,-5.137154 -1.20716,-5.978964 -0.23875,-1.656229 -0.28267,-0.592729 -0.30127,-0.301273 -0.14056,-0.120407 -0.19431,-0.03359 -0.23409,-0.0067 -0.25425,0.06046 -0.75654,0.28112 -0.37517,0.06666 -0.24081,-0.02687 -0.20103,-0.06666 -0.2005,-0.120406 -0.37517,-0.395325 -0.0868,-0.38809 v -0.776696 l -0.0336,-0.77618 -0.22737,-1.915129 -0.13436,-0.435115 -0.61547,0.984436 -0.2682,0.428397 -0.23409,0.213941 -0.33487,0.160713 -0.22066,0.02015 -0.46198,-0.04703 -0.33487,-0.193787 -0.43976,-0.610299 0.061,0.574642 0.0258,0.216524 0.0145,0.180868 -0.0109,0.207222 -0.0331,0.153479 -0.0465,0.125574 -0.0517,0.10542 -0.094,0.136943 -0.10904,0.117822 -0.12609,0.100252 -0.1235,0.07545 -0.18862,0.07958 -0.14625,0.02946 z"
       style="fill:#464646;stroke-width:2.202;stroke-linejoin:round;stroke-miterlimit:1.5"
       id="path25-5" />
  </g>
</svg>
